M48
; DRILL file {KiCad (5.1.7)-1} date 05/05/21 18:42:58
; FORMAT={-:-/ absolute / inch / decimal}
; #@! TF.CreationDate,2021-05-05T18:42:58-04:00
; #@! TF.GenerationSoftware,Kicad,Pcbnew,(5.1.7)-1
; #@! TF.FileFunction,Plated,1,2,PTH
FMAT,2
INCH
T1C0.0276
T2C0.0320
T3C0.0394
T4C0.0402
T5C0.0590
T6C0.0591
%
G90
G05
T1
X4.561Y-4.7736
X4.4429Y-2.9035
X2.9862Y-4.7736
X3.2933Y-4.7736
X3.6949Y-3.2087
X4.002Y-3.2087
X3.7933Y-4.7736
X4.1004Y-4.7736
X2.8976Y-3.1988
X3.2047Y-3.1988
X4.4724Y-3.2087
X4.7795Y-3.2087
X4.8681Y-4.7736
X4.75Y-2.9035
X4.5807Y-3.9862
X4.8878Y-3.9862
X3.7736Y-3.9862
X4.0807Y-3.9862
X2.8976Y-2.9331
X3.2047Y-2.9331
X3.0059Y-3.9862
X3.313Y-3.9862
T2
X6.5602Y-2.2638
X6.6602Y-2.2638
X6.7602Y-2.2638
X6.8602Y-2.2638
T3
X4.4882Y-2.1752
X4.4882Y-2.7461
X4.5866Y-2.1752
X4.685Y-2.1752
X4.685Y-2.7461
X2.9429Y-2.185
X2.9429Y-2.7559
X3.0413Y-2.185
X3.1398Y-2.185
X3.1398Y-2.7559
T4
X5.5555Y-1.7173
X5.5555Y-1.8173
X5.5555Y-1.9173
X5.5555Y-2.0173
X5.5555Y-2.1173
X5.5555Y-2.2173
X5.5555Y-2.3173
X5.5555Y-2.4173
X5.5555Y-2.5173
X5.5555Y-2.6173
X5.5555Y-2.7173
X5.5555Y-2.8173
X5.5555Y-2.9173
X5.5555Y-3.0173
X5.5555Y-3.1173
X5.5555Y-3.2173
X5.5555Y-3.3173
X5.5555Y-3.4173
X5.5555Y-3.5173
X5.5555Y-3.6173
X5.8055Y-3.6083
X5.9055Y-3.6083
X6.0055Y-3.6083
X6.2555Y-1.7173
X6.2555Y-1.8173
X6.2555Y-1.9173
X6.2555Y-2.0173
X6.2555Y-2.1173
X6.2555Y-2.2173
X6.2555Y-2.3173
X6.2555Y-2.4173
X6.2555Y-2.5173
X6.2555Y-2.6173
X6.2555Y-2.7173
X6.2555Y-2.8173
X6.2555Y-2.9173
X6.2555Y-3.0173
X6.2555Y-3.1173
X6.2555Y-3.2173
X6.2555Y-3.3173
X6.2555Y-3.4173
X6.2555Y-3.5173
X6.2555Y-3.6173
T5
X6.059Y-3.7942
X6.059Y-5.5066
X6.2164Y-3.7942
X5.6378Y-3.7942
X5.6378Y-5.5066
X5.7952Y-3.7942
T6
G00X2.9468Y-4.952
M15
G01X2.8992Y-5.0267
M16
G05
G00X3.1512Y-4.928
M15
G01X3.1496Y-4.9508
M16
G05
G00X3.7244Y-4.1646
M15
G01X3.6768Y-4.2393
M16
G05
G00X3.9287Y-4.1406
M15
G01X3.9272Y-4.1634
M16
G05
G00X4.5118Y-4.1646
M15
G01X4.4642Y-4.2393
M16
G05
G00X4.7161Y-4.1406
M15
G01X4.7146Y-4.1634
M16
G05
G00X4.5118Y-3.3772
M15
G01X4.4642Y-3.4519
M16
G05
G00X4.7161Y-3.3532
M15
G01X4.7146Y-3.376
M16
G05
G00X4.5118Y-4.952
M15
G01X4.4642Y-5.0267
M16
G05
G00X4.7161Y-4.928
M15
G01X4.7146Y-4.9508
M16
G05
G00X3.7244Y-3.3772
M15
G01X3.6768Y-3.4519
M16
G05
G00X3.9287Y-3.3532
M15
G01X3.9272Y-3.376
M16
G05
G00X3.7342Y-4.952
M15
G01X3.6866Y-5.0267
M16
G05
G00X3.9386Y-4.928
M15
G01X3.937Y-4.9508
M16
G05
G00X2.9468Y-4.1646
M15
G01X2.8992Y-4.2393
M16
G05
G00X3.1512Y-4.1406
M15
G01X3.1496Y-4.1634
M16
G05
G00X2.9468Y-3.3772
M15
G01X2.8992Y-3.4519
M16
G05
G00X3.1512Y-3.3532
M15
G01X3.1496Y-3.376
M16
G05
T0
M30
