%TF.GenerationSoftware,KiCad,Pcbnew,(5.1.7)-1*%
%TF.CreationDate,2021-05-06T00:37:00-04:00*%
%TF.ProjectId,pot_keeb_rpi,706f745f-6b65-4656-925f-7270692e6b69,rev?*%
%TF.SameCoordinates,Original*%
%TF.FileFunction,Legend,Top*%
%TF.FilePolarity,Positive*%
%FSLAX46Y46*%
G04 Gerber Fmt 4.6, Leading zero omitted, Abs format (unit mm)*
G04 Created by KiCad (PCBNEW (5.1.7)-1) date 2021-05-06 00:37:00*
%MOMM*%
%LPD*%
G01*
G04 APERTURE LIST*
%ADD10C,0.150000*%
%ADD11C,0.120000*%
%ADD12C,0.497840*%
%ADD13C,0.203200*%
%ADD14C,0.381000*%
%ADD15C,0.127000*%
%ADD16C,0.200000*%
G04 APERTURE END LIST*
D10*
X92809523Y-63452380D02*
X92809523Y-62452380D01*
X93190476Y-62452380D01*
X93285714Y-62500000D01*
X93333333Y-62547619D01*
X93380952Y-62642857D01*
X93380952Y-62785714D01*
X93333333Y-62880952D01*
X93285714Y-62928571D01*
X93190476Y-62976190D01*
X92809523Y-62976190D01*
X93952380Y-63452380D02*
X93857142Y-63404761D01*
X93809523Y-63357142D01*
X93761904Y-63261904D01*
X93761904Y-62976190D01*
X93809523Y-62880952D01*
X93857142Y-62833333D01*
X93952380Y-62785714D01*
X94095238Y-62785714D01*
X94190476Y-62833333D01*
X94238095Y-62880952D01*
X94285714Y-62976190D01*
X94285714Y-63261904D01*
X94238095Y-63357142D01*
X94190476Y-63404761D01*
X94095238Y-63452380D01*
X93952380Y-63452380D01*
X94571428Y-62785714D02*
X94952380Y-62785714D01*
X94714285Y-62452380D02*
X94714285Y-63309523D01*
X94761904Y-63404761D01*
X94857142Y-63452380D01*
X94952380Y-63452380D01*
X95285714Y-63452380D02*
X95285714Y-62452380D01*
X95666666Y-62452380D01*
X95761904Y-62500000D01*
X95809523Y-62547619D01*
X95857142Y-62642857D01*
X95857142Y-62785714D01*
X95809523Y-62880952D01*
X95761904Y-62928571D01*
X95666666Y-62976190D01*
X95285714Y-62976190D01*
X96285714Y-63452380D02*
X96285714Y-62785714D01*
X96285714Y-62452380D02*
X96238095Y-62500000D01*
X96285714Y-62547619D01*
X96333333Y-62500000D01*
X96285714Y-62452380D01*
X96285714Y-62547619D01*
X97428571Y-62785714D02*
X97666666Y-63452380D01*
X97904761Y-62785714D01*
X98809523Y-63452380D02*
X98238095Y-63452380D01*
X98523809Y-63452380D02*
X98523809Y-62452380D01*
X98428571Y-62595238D01*
X98333333Y-62690476D01*
X98238095Y-62738095D01*
X99238095Y-63357142D02*
X99285714Y-63404761D01*
X99238095Y-63452380D01*
X99190476Y-63404761D01*
X99238095Y-63357142D01*
X99238095Y-63452380D01*
X99904761Y-62452380D02*
X100000000Y-62452380D01*
X100095238Y-62500000D01*
X100142857Y-62547619D01*
X100190476Y-62642857D01*
X100238095Y-62833333D01*
X100238095Y-63071428D01*
X100190476Y-63261904D01*
X100142857Y-63357142D01*
X100095238Y-63404761D01*
X100000000Y-63452380D01*
X99904761Y-63452380D01*
X99809523Y-63404761D01*
X99761904Y-63357142D01*
X99714285Y-63261904D01*
X99666666Y-63071428D01*
X99666666Y-62833333D01*
X99714285Y-62642857D01*
X99761904Y-62547619D01*
X99809523Y-62500000D01*
X99904761Y-62452380D01*
D11*
%TO.C,U1*%
X139500000Y-42250000D02*
X160500000Y-42250000D01*
X146300000Y-93250000D02*
X139500000Y-93250000D01*
X139500000Y-44917000D02*
X142507000Y-44917000D01*
X142507000Y-44917000D02*
X142507000Y-42250000D01*
X139500000Y-42250000D02*
X139500000Y-42550000D01*
X139500000Y-44650000D02*
X139500000Y-45050000D01*
X139500000Y-47250000D02*
X139500000Y-47650000D01*
X139500000Y-49750000D02*
X139500000Y-50150000D01*
X139500000Y-52350000D02*
X139500000Y-52750000D01*
X139500000Y-54850000D02*
X139500000Y-55250000D01*
X139500000Y-57350000D02*
X139500000Y-57750000D01*
X139500000Y-59950000D02*
X139500000Y-60350000D01*
X139500000Y-62450000D02*
X139500000Y-62850000D01*
X139500000Y-65050000D02*
X139500000Y-65450000D01*
X139500000Y-67550000D02*
X139500000Y-67950000D01*
X139500000Y-70050000D02*
X139500000Y-70450000D01*
X139500000Y-72650000D02*
X139500000Y-73050000D01*
X139500000Y-75150000D02*
X139500000Y-75550000D01*
X139500000Y-77750000D02*
X139500000Y-78150000D01*
X139500000Y-80250000D02*
X139500000Y-80650000D01*
X139500000Y-82850000D02*
X139500000Y-83250000D01*
X139500000Y-85350000D02*
X139500000Y-85750000D01*
X139500000Y-87850000D02*
X139500000Y-88250000D01*
X139500000Y-90450000D02*
X139500000Y-90850000D01*
X160500000Y-57350000D02*
X160500000Y-57750000D01*
X160500000Y-62450000D02*
X160500000Y-62850000D01*
X160500000Y-70050000D02*
X160500000Y-70450000D01*
X160500000Y-77750000D02*
X160500000Y-78150000D01*
X160500000Y-47250000D02*
X160500000Y-47650000D01*
X160500000Y-44650000D02*
X160500000Y-45050000D01*
X160500000Y-52350000D02*
X160500000Y-52750000D01*
X160500000Y-85350000D02*
X160500000Y-85750000D01*
X160500000Y-90450000D02*
X160500000Y-90850000D01*
X160500000Y-87850000D02*
X160500000Y-88250000D01*
X160500000Y-72650000D02*
X160500000Y-73050000D01*
X160500000Y-67550000D02*
X160500000Y-67950000D01*
X160500000Y-54850000D02*
X160500000Y-55250000D01*
X160500000Y-59950000D02*
X160500000Y-60350000D01*
X160500000Y-80250000D02*
X160500000Y-80650000D01*
X160500000Y-65050000D02*
X160500000Y-65450000D01*
X160500000Y-42250000D02*
X160500000Y-42550000D01*
X160500000Y-49750000D02*
X160500000Y-50150000D01*
X160500000Y-75150000D02*
X160500000Y-75550000D01*
X160500000Y-82850000D02*
X160500000Y-83250000D01*
X160500000Y-93250000D02*
X153700000Y-93250000D01*
X148500000Y-93250000D02*
X148900000Y-93250000D01*
X151100000Y-93250000D02*
X151500000Y-93250000D01*
D12*
%TO.C,VR1*%
X145897099Y-138619230D02*
G75*
G03*
X145897099Y-138619230I-698500J0D01*
G01*
X145897099Y-97623630D02*
G75*
G03*
X145897099Y-97623630I-698500J0D01*
G01*
D13*
X149948399Y-95622110D02*
X140448799Y-95622110D01*
X149948399Y-140620750D02*
X149948399Y-95622110D01*
X140448799Y-140620750D02*
X149948399Y-140620750D01*
X140448799Y-95622110D02*
X140448799Y-140620750D01*
%TO.C,VR0*%
X151148799Y-95622110D02*
X151148799Y-140620750D01*
X151148799Y-140620750D02*
X160648399Y-140620750D01*
X160648399Y-140620750D02*
X160648399Y-95622110D01*
X160648399Y-95622110D02*
X151148799Y-95622110D01*
D12*
X156597099Y-97623630D02*
G75*
G03*
X156597099Y-97623630I-698500J0D01*
G01*
X156597099Y-138619230D02*
G75*
G03*
X156597099Y-138619230I-698500J0D01*
G01*
D11*
%TO.C,SW12*%
X80250000Y-63000000D02*
G75*
G03*
X80250000Y-63000000I-3000000J0D01*
G01*
X83150000Y-65000000D02*
X83150000Y-69100000D01*
X71350000Y-69100000D02*
X71350000Y-65000000D01*
X71350000Y-61000000D02*
X71350000Y-56900000D01*
X83150000Y-61000000D02*
X83150000Y-56900000D01*
X83150000Y-56900000D02*
X71350000Y-56900000D01*
X81050000Y-55500000D02*
X81350000Y-55200000D01*
X81350000Y-55200000D02*
X81350000Y-55800000D01*
X81350000Y-55800000D02*
X81050000Y-55500000D01*
X83150000Y-69100000D02*
X80750000Y-69100000D01*
X78550000Y-69100000D02*
X75950000Y-69100000D01*
X73750000Y-69100000D02*
X71350000Y-69100000D01*
X77750000Y-63000000D02*
X76750000Y-63000000D01*
X77250000Y-62500000D02*
X77250000Y-63500000D01*
D14*
%TO.C,K1*%
X71150000Y-83900000D02*
X72928000Y-83900000D01*
X82072000Y-83900000D02*
X83850000Y-83900000D01*
X83850000Y-83900000D02*
X83850000Y-85678000D01*
X83850000Y-94822000D02*
X83850000Y-96600000D01*
X83850000Y-96600000D02*
X82072000Y-96600000D01*
X72928000Y-96600000D02*
X71150000Y-96600000D01*
X71150000Y-96600000D02*
X71150000Y-94822000D01*
X71150000Y-85678000D02*
X71150000Y-83900000D01*
%TO.C,K2*%
X90900000Y-83900000D02*
X92678000Y-83900000D01*
X101822000Y-83900000D02*
X103600000Y-83900000D01*
X103600000Y-83900000D02*
X103600000Y-85678000D01*
X103600000Y-94822000D02*
X103600000Y-96600000D01*
X103600000Y-96600000D02*
X101822000Y-96600000D01*
X92678000Y-96600000D02*
X90900000Y-96600000D01*
X90900000Y-96600000D02*
X90900000Y-94822000D01*
X90900000Y-85678000D02*
X90900000Y-83900000D01*
%TO.C,K3*%
X110900000Y-85678000D02*
X110900000Y-83900000D01*
X110900000Y-96600000D02*
X110900000Y-94822000D01*
X112678000Y-96600000D02*
X110900000Y-96600000D01*
X123600000Y-96600000D02*
X121822000Y-96600000D01*
X123600000Y-94822000D02*
X123600000Y-96600000D01*
X123600000Y-83900000D02*
X123600000Y-85678000D01*
X121822000Y-83900000D02*
X123600000Y-83900000D01*
X110900000Y-83900000D02*
X112678000Y-83900000D01*
%TO.C,K4*%
X71150000Y-103900000D02*
X72928000Y-103900000D01*
X82072000Y-103900000D02*
X83850000Y-103900000D01*
X83850000Y-103900000D02*
X83850000Y-105678000D01*
X83850000Y-114822000D02*
X83850000Y-116600000D01*
X83850000Y-116600000D02*
X82072000Y-116600000D01*
X72928000Y-116600000D02*
X71150000Y-116600000D01*
X71150000Y-116600000D02*
X71150000Y-114822000D01*
X71150000Y-105678000D02*
X71150000Y-103900000D01*
%TO.C,K5*%
X90900000Y-103900000D02*
X92678000Y-103900000D01*
X101822000Y-103900000D02*
X103600000Y-103900000D01*
X103600000Y-103900000D02*
X103600000Y-105678000D01*
X103600000Y-114822000D02*
X103600000Y-116600000D01*
X103600000Y-116600000D02*
X101822000Y-116600000D01*
X92678000Y-116600000D02*
X90900000Y-116600000D01*
X90900000Y-116600000D02*
X90900000Y-114822000D01*
X90900000Y-105678000D02*
X90900000Y-103900000D01*
%TO.C,K6*%
X110900000Y-103900000D02*
X112678000Y-103900000D01*
X121822000Y-103900000D02*
X123600000Y-103900000D01*
X123600000Y-103900000D02*
X123600000Y-105678000D01*
X123600000Y-114822000D02*
X123600000Y-116600000D01*
X123600000Y-116600000D02*
X121822000Y-116600000D01*
X112678000Y-116600000D02*
X110900000Y-116600000D01*
X110900000Y-116600000D02*
X110900000Y-114822000D01*
X110900000Y-105678000D02*
X110900000Y-103900000D01*
%TO.C,K7*%
X71150000Y-125678000D02*
X71150000Y-123900000D01*
X71150000Y-136600000D02*
X71150000Y-134822000D01*
X72928000Y-136600000D02*
X71150000Y-136600000D01*
X83850000Y-136600000D02*
X82072000Y-136600000D01*
X83850000Y-134822000D02*
X83850000Y-136600000D01*
X83850000Y-123900000D02*
X83850000Y-125678000D01*
X82072000Y-123900000D02*
X83850000Y-123900000D01*
X71150000Y-123900000D02*
X72928000Y-123900000D01*
%TO.C,K8*%
X91150000Y-123900000D02*
X92928000Y-123900000D01*
X102072000Y-123900000D02*
X103850000Y-123900000D01*
X103850000Y-123900000D02*
X103850000Y-125678000D01*
X103850000Y-134822000D02*
X103850000Y-136600000D01*
X103850000Y-136600000D02*
X102072000Y-136600000D01*
X92928000Y-136600000D02*
X91150000Y-136600000D01*
X91150000Y-136600000D02*
X91150000Y-134822000D01*
X91150000Y-125678000D02*
X91150000Y-123900000D01*
%TO.C,K9*%
X110900000Y-125678000D02*
X110900000Y-123900000D01*
X110900000Y-136600000D02*
X110900000Y-134822000D01*
X112678000Y-136600000D02*
X110900000Y-136600000D01*
X123600000Y-136600000D02*
X121822000Y-136600000D01*
X123600000Y-134822000D02*
X123600000Y-136600000D01*
X123600000Y-123900000D02*
X123600000Y-125678000D01*
X121822000Y-123900000D02*
X123600000Y-123900000D01*
X110900000Y-123900000D02*
X112678000Y-123900000D01*
D11*
%TO.C,SW11*%
X116500000Y-62250000D02*
X116500000Y-63250000D01*
X117000000Y-62750000D02*
X116000000Y-62750000D01*
X113000000Y-68850000D02*
X110600000Y-68850000D01*
X117800000Y-68850000D02*
X115200000Y-68850000D01*
X122400000Y-68850000D02*
X120000000Y-68850000D01*
X120600000Y-55550000D02*
X120300000Y-55250000D01*
X120600000Y-54950000D02*
X120600000Y-55550000D01*
X120300000Y-55250000D02*
X120600000Y-54950000D01*
X122400000Y-56650000D02*
X110600000Y-56650000D01*
X122400000Y-60750000D02*
X122400000Y-56650000D01*
X110600000Y-60750000D02*
X110600000Y-56650000D01*
X110600000Y-68850000D02*
X110600000Y-64750000D01*
X122400000Y-64750000D02*
X122400000Y-68850000D01*
X119500000Y-62750000D02*
G75*
G03*
X119500000Y-62750000I-3000000J0D01*
G01*
D10*
%TO.C,OL1*%
X175520000Y-56230000D02*
X165360000Y-56230000D01*
X165360000Y-56230000D02*
X165360000Y-58770000D01*
X165360000Y-58770000D02*
X175520000Y-58770000D01*
X175520000Y-58770000D02*
X175520000Y-56230000D01*
%TO.C,REF\u002A\u002A*%
X61666666Y-150002380D02*
X61333333Y-149526190D01*
X61095238Y-150002380D02*
X61095238Y-149002380D01*
X61476190Y-149002380D01*
X61571428Y-149050000D01*
X61619047Y-149097619D01*
X61666666Y-149192857D01*
X61666666Y-149335714D01*
X61619047Y-149430952D01*
X61571428Y-149478571D01*
X61476190Y-149526190D01*
X61095238Y-149526190D01*
X62095238Y-149478571D02*
X62428571Y-149478571D01*
X62571428Y-150002380D02*
X62095238Y-150002380D01*
X62095238Y-149002380D01*
X62571428Y-149002380D01*
X63333333Y-149478571D02*
X63000000Y-149478571D01*
X63000000Y-150002380D02*
X63000000Y-149002380D01*
X63476190Y-149002380D01*
X64000000Y-149002380D02*
X64000000Y-149240476D01*
X63761904Y-149145238D02*
X64000000Y-149240476D01*
X64238095Y-149145238D01*
X63857142Y-149430952D02*
X64000000Y-149240476D01*
X64142857Y-149430952D01*
X64761904Y-149002380D02*
X64761904Y-149240476D01*
X64523809Y-149145238D02*
X64761904Y-149240476D01*
X65000000Y-149145238D01*
X64619047Y-149430952D02*
X64761904Y-149240476D01*
X64904761Y-149430952D01*
X61666666Y-41502380D02*
X61333333Y-41026190D01*
X61095238Y-41502380D02*
X61095238Y-40502380D01*
X61476190Y-40502380D01*
X61571428Y-40550000D01*
X61619047Y-40597619D01*
X61666666Y-40692857D01*
X61666666Y-40835714D01*
X61619047Y-40930952D01*
X61571428Y-40978571D01*
X61476190Y-41026190D01*
X61095238Y-41026190D01*
X62095238Y-40978571D02*
X62428571Y-40978571D01*
X62571428Y-41502380D02*
X62095238Y-41502380D01*
X62095238Y-40502380D01*
X62571428Y-40502380D01*
X63333333Y-40978571D02*
X63000000Y-40978571D01*
X63000000Y-41502380D02*
X63000000Y-40502380D01*
X63476190Y-40502380D01*
X64000000Y-40502380D02*
X64000000Y-40740476D01*
X63761904Y-40645238D02*
X64000000Y-40740476D01*
X64238095Y-40645238D01*
X63857142Y-40930952D02*
X64000000Y-40740476D01*
X64142857Y-40930952D01*
X64761904Y-40502380D02*
X64761904Y-40740476D01*
X64523809Y-40645238D02*
X64761904Y-40740476D01*
X65000000Y-40645238D01*
X64619047Y-40930952D02*
X64761904Y-40740476D01*
X64904761Y-40930952D01*
X169416666Y-41502380D02*
X169083333Y-41026190D01*
X168845238Y-41502380D02*
X168845238Y-40502380D01*
X169226190Y-40502380D01*
X169321428Y-40550000D01*
X169369047Y-40597619D01*
X169416666Y-40692857D01*
X169416666Y-40835714D01*
X169369047Y-40930952D01*
X169321428Y-40978571D01*
X169226190Y-41026190D01*
X168845238Y-41026190D01*
X169845238Y-40978571D02*
X170178571Y-40978571D01*
X170321428Y-41502380D02*
X169845238Y-41502380D01*
X169845238Y-40502380D01*
X170321428Y-40502380D01*
X171083333Y-40978571D02*
X170750000Y-40978571D01*
X170750000Y-41502380D02*
X170750000Y-40502380D01*
X171226190Y-40502380D01*
X171750000Y-40502380D02*
X171750000Y-40740476D01*
X171511904Y-40645238D02*
X171750000Y-40740476D01*
X171988095Y-40645238D01*
X171607142Y-40930952D02*
X171750000Y-40740476D01*
X171892857Y-40930952D01*
X172511904Y-40502380D02*
X172511904Y-40740476D01*
X172273809Y-40645238D02*
X172511904Y-40740476D01*
X172750000Y-40645238D01*
X172369047Y-40930952D02*
X172511904Y-40740476D01*
X172654761Y-40930952D01*
X169416666Y-150252380D02*
X169083333Y-149776190D01*
X168845238Y-150252380D02*
X168845238Y-149252380D01*
X169226190Y-149252380D01*
X169321428Y-149300000D01*
X169369047Y-149347619D01*
X169416666Y-149442857D01*
X169416666Y-149585714D01*
X169369047Y-149680952D01*
X169321428Y-149728571D01*
X169226190Y-149776190D01*
X168845238Y-149776190D01*
X169845238Y-149728571D02*
X170178571Y-149728571D01*
X170321428Y-150252380D02*
X169845238Y-150252380D01*
X169845238Y-149252380D01*
X170321428Y-149252380D01*
X171083333Y-149728571D02*
X170750000Y-149728571D01*
X170750000Y-150252380D02*
X170750000Y-149252380D01*
X171226190Y-149252380D01*
X171750000Y-149252380D02*
X171750000Y-149490476D01*
X171511904Y-149395238D02*
X171750000Y-149490476D01*
X171988095Y-149395238D01*
X171607142Y-149680952D02*
X171750000Y-149490476D01*
X171892857Y-149680952D01*
X172511904Y-149252380D02*
X172511904Y-149490476D01*
X172273809Y-149395238D02*
X172511904Y-149490476D01*
X172750000Y-149395238D01*
X172369047Y-149680952D02*
X172511904Y-149490476D01*
X172654761Y-149680952D01*
%TO.C,U1*%
X149238095Y-67202380D02*
X149238095Y-68011904D01*
X149285714Y-68107142D01*
X149333333Y-68154761D01*
X149428571Y-68202380D01*
X149619047Y-68202380D01*
X149714285Y-68154761D01*
X149761904Y-68107142D01*
X149809523Y-68011904D01*
X149809523Y-67202380D01*
X150809523Y-68202380D02*
X150238095Y-68202380D01*
X150523809Y-68202380D02*
X150523809Y-67202380D01*
X150428571Y-67345238D01*
X150333333Y-67440476D01*
X150238095Y-67488095D01*
X136413096Y-46271218D02*
X136332284Y-46298155D01*
X136251471Y-46378967D01*
X136197597Y-46486717D01*
X136197597Y-46594467D01*
X136224534Y-46675279D01*
X136305346Y-46809966D01*
X136386158Y-46890778D01*
X136520845Y-46971590D01*
X136601658Y-46998528D01*
X136709407Y-46998528D01*
X136817157Y-46944653D01*
X136871032Y-46890778D01*
X136924906Y-46783028D01*
X136924906Y-46729154D01*
X136736345Y-46540592D01*
X136628595Y-46648341D01*
X137221218Y-46540592D02*
X136655532Y-45974906D01*
X136871032Y-45759407D01*
X136951844Y-45732470D01*
X137005719Y-45732470D01*
X137086531Y-45759407D01*
X137167343Y-45840219D01*
X137194280Y-45921032D01*
X137194280Y-45974906D01*
X137167343Y-46055719D01*
X136951844Y-46271218D01*
X138083215Y-45678595D02*
X137759966Y-46001844D01*
X137921590Y-45840219D02*
X137355905Y-45274534D01*
X137382842Y-45409221D01*
X137382842Y-45516971D01*
X137355905Y-45597783D01*
X136413096Y-51361218D02*
X136332284Y-51388155D01*
X136251471Y-51468967D01*
X136197597Y-51576717D01*
X136197597Y-51684467D01*
X136224534Y-51765279D01*
X136305346Y-51899966D01*
X136386158Y-51980778D01*
X136520845Y-52061590D01*
X136601658Y-52088528D01*
X136709407Y-52088528D01*
X136817157Y-52034653D01*
X136871032Y-51980778D01*
X136924906Y-51873028D01*
X136924906Y-51819154D01*
X136736345Y-51630592D01*
X136628595Y-51738341D01*
X137221218Y-51630592D02*
X136655532Y-51064906D01*
X136871032Y-50849407D01*
X136951844Y-50822470D01*
X137005719Y-50822470D01*
X137086531Y-50849407D01*
X137167343Y-50930219D01*
X137194280Y-51011032D01*
X137194280Y-51064906D01*
X137167343Y-51145719D01*
X136951844Y-51361218D01*
X137248155Y-50580033D02*
X137248155Y-50526158D01*
X137275093Y-50445346D01*
X137409780Y-50310659D01*
X137490592Y-50283722D01*
X137544467Y-50283722D01*
X137625279Y-50310659D01*
X137679154Y-50364534D01*
X137733028Y-50472284D01*
X137733028Y-51118781D01*
X138083215Y-50768595D01*
X136513096Y-43741218D02*
X136432284Y-43768155D01*
X136351471Y-43848967D01*
X136297597Y-43956717D01*
X136297597Y-44064467D01*
X136324534Y-44145279D01*
X136405346Y-44279966D01*
X136486158Y-44360778D01*
X136620845Y-44441590D01*
X136701658Y-44468528D01*
X136809407Y-44468528D01*
X136917157Y-44414653D01*
X136971032Y-44360778D01*
X137024906Y-44253028D01*
X137024906Y-44199154D01*
X136836345Y-44010592D01*
X136728595Y-44118341D01*
X137321218Y-44010592D02*
X136755532Y-43444906D01*
X136971032Y-43229407D01*
X137051844Y-43202470D01*
X137105719Y-43202470D01*
X137186531Y-43229407D01*
X137267343Y-43310219D01*
X137294280Y-43391032D01*
X137294280Y-43444906D01*
X137267343Y-43525719D01*
X137051844Y-43741218D01*
X137428967Y-42771471D02*
X137482842Y-42717597D01*
X137563654Y-42690659D01*
X137617529Y-42690659D01*
X137698341Y-42717597D01*
X137833028Y-42798409D01*
X137967715Y-42933096D01*
X138048528Y-43067783D01*
X138075465Y-43148595D01*
X138075465Y-43202470D01*
X138048528Y-43283282D01*
X137994653Y-43337157D01*
X137913841Y-43364094D01*
X137859966Y-43364094D01*
X137779154Y-43337157D01*
X137644467Y-43256345D01*
X137509780Y-43121658D01*
X137428967Y-42986971D01*
X137402030Y-42906158D01*
X137402030Y-42852284D01*
X137428967Y-42771471D01*
X136513096Y-53901218D02*
X136432284Y-53928155D01*
X136351471Y-54008967D01*
X136297597Y-54116717D01*
X136297597Y-54224467D01*
X136324534Y-54305279D01*
X136405346Y-54439966D01*
X136486158Y-54520778D01*
X136620845Y-54601590D01*
X136701658Y-54628528D01*
X136809407Y-54628528D01*
X136917157Y-54574653D01*
X136971032Y-54520778D01*
X137024906Y-54413028D01*
X137024906Y-54359154D01*
X136836345Y-54170592D01*
X136728595Y-54278341D01*
X137321218Y-54170592D02*
X136755532Y-53604906D01*
X136971032Y-53389407D01*
X137051844Y-53362470D01*
X137105719Y-53362470D01*
X137186531Y-53389407D01*
X137267343Y-53470219D01*
X137294280Y-53551032D01*
X137294280Y-53604906D01*
X137267343Y-53685719D01*
X137051844Y-53901218D01*
X137267343Y-53093096D02*
X137617529Y-52742910D01*
X137644467Y-53146971D01*
X137725279Y-53066158D01*
X137806091Y-53039221D01*
X137859966Y-53039221D01*
X137940778Y-53066158D01*
X138075465Y-53200845D01*
X138102402Y-53281658D01*
X138102402Y-53335532D01*
X138075465Y-53416345D01*
X137913841Y-53577969D01*
X137833028Y-53604906D01*
X137779154Y-53604906D01*
X136513096Y-56441218D02*
X136432284Y-56468155D01*
X136351471Y-56548967D01*
X136297597Y-56656717D01*
X136297597Y-56764467D01*
X136324534Y-56845279D01*
X136405346Y-56979966D01*
X136486158Y-57060778D01*
X136620845Y-57141590D01*
X136701658Y-57168528D01*
X136809407Y-57168528D01*
X136917157Y-57114653D01*
X136971032Y-57060778D01*
X137024906Y-56953028D01*
X137024906Y-56899154D01*
X136836345Y-56710592D01*
X136728595Y-56818341D01*
X137321218Y-56710592D02*
X136755532Y-56144906D01*
X136971032Y-55929407D01*
X137051844Y-55902470D01*
X137105719Y-55902470D01*
X137186531Y-55929407D01*
X137267343Y-56010219D01*
X137294280Y-56091032D01*
X137294280Y-56144906D01*
X137267343Y-56225719D01*
X137051844Y-56441218D01*
X137752216Y-55525346D02*
X138129340Y-55902470D01*
X137402030Y-55444534D02*
X137671404Y-55983282D01*
X138021590Y-55633096D01*
X136513096Y-58981218D02*
X136432284Y-59008155D01*
X136351471Y-59088967D01*
X136297597Y-59196717D01*
X136297597Y-59304467D01*
X136324534Y-59385279D01*
X136405346Y-59519966D01*
X136486158Y-59600778D01*
X136620845Y-59681590D01*
X136701658Y-59708528D01*
X136809407Y-59708528D01*
X136917157Y-59654653D01*
X136971032Y-59600778D01*
X137024906Y-59493028D01*
X137024906Y-59439154D01*
X136836345Y-59250592D01*
X136728595Y-59358341D01*
X137321218Y-59250592D02*
X136755532Y-58684906D01*
X136971032Y-58469407D01*
X137051844Y-58442470D01*
X137105719Y-58442470D01*
X137186531Y-58469407D01*
X137267343Y-58550219D01*
X137294280Y-58631032D01*
X137294280Y-58684906D01*
X137267343Y-58765719D01*
X137051844Y-58981218D01*
X137590592Y-57849847D02*
X137321218Y-58119221D01*
X137563654Y-58415532D01*
X137563654Y-58361658D01*
X137590592Y-58280845D01*
X137725279Y-58146158D01*
X137806091Y-58119221D01*
X137859966Y-58119221D01*
X137940778Y-58146158D01*
X138075465Y-58280845D01*
X138102402Y-58361658D01*
X138102402Y-58415532D01*
X138075465Y-58496345D01*
X137940778Y-58631032D01*
X137859966Y-58657969D01*
X137806091Y-58657969D01*
X136513096Y-64061218D02*
X136432284Y-64088155D01*
X136351471Y-64168967D01*
X136297597Y-64276717D01*
X136297597Y-64384467D01*
X136324534Y-64465279D01*
X136405346Y-64599966D01*
X136486158Y-64680778D01*
X136620845Y-64761590D01*
X136701658Y-64788528D01*
X136809407Y-64788528D01*
X136917157Y-64734653D01*
X136971032Y-64680778D01*
X137024906Y-64573028D01*
X137024906Y-64519154D01*
X136836345Y-64330592D01*
X136728595Y-64438341D01*
X137321218Y-64330592D02*
X136755532Y-63764906D01*
X136971032Y-63549407D01*
X137051844Y-63522470D01*
X137105719Y-63522470D01*
X137186531Y-63549407D01*
X137267343Y-63630219D01*
X137294280Y-63711032D01*
X137294280Y-63764906D01*
X137267343Y-63845719D01*
X137051844Y-64061218D01*
X137563654Y-62956784D02*
X137455905Y-63064534D01*
X137428967Y-63145346D01*
X137428967Y-63199221D01*
X137455905Y-63333908D01*
X137536717Y-63468595D01*
X137752216Y-63684094D01*
X137833028Y-63711032D01*
X137886903Y-63711032D01*
X137967715Y-63684094D01*
X138075465Y-63576345D01*
X138102402Y-63495532D01*
X138102402Y-63441658D01*
X138075465Y-63360845D01*
X137940778Y-63226158D01*
X137859966Y-63199221D01*
X137806091Y-63199221D01*
X137725279Y-63226158D01*
X137617529Y-63333908D01*
X137590592Y-63414720D01*
X137590592Y-63468595D01*
X137617529Y-63549407D01*
X136613096Y-66571218D02*
X136532284Y-66598155D01*
X136451471Y-66678967D01*
X136397597Y-66786717D01*
X136397597Y-66894467D01*
X136424534Y-66975279D01*
X136505346Y-67109966D01*
X136586158Y-67190778D01*
X136720845Y-67271590D01*
X136801658Y-67298528D01*
X136909407Y-67298528D01*
X137017157Y-67244653D01*
X137071032Y-67190778D01*
X137124906Y-67083028D01*
X137124906Y-67029154D01*
X136936345Y-66840592D01*
X136828595Y-66948341D01*
X137421218Y-66840592D02*
X136855532Y-66274906D01*
X137071032Y-66059407D01*
X137151844Y-66032470D01*
X137205719Y-66032470D01*
X137286531Y-66059407D01*
X137367343Y-66140219D01*
X137394280Y-66221032D01*
X137394280Y-66274906D01*
X137367343Y-66355719D01*
X137151844Y-66571218D01*
X137367343Y-65763096D02*
X137744467Y-65385972D01*
X138067715Y-66194094D01*
X136513096Y-69141218D02*
X136432284Y-69168155D01*
X136351471Y-69248967D01*
X136297597Y-69356717D01*
X136297597Y-69464467D01*
X136324534Y-69545279D01*
X136405346Y-69679966D01*
X136486158Y-69760778D01*
X136620845Y-69841590D01*
X136701658Y-69868528D01*
X136809407Y-69868528D01*
X136917157Y-69814653D01*
X136971032Y-69760778D01*
X137024906Y-69653028D01*
X137024906Y-69599154D01*
X136836345Y-69410592D01*
X136728595Y-69518341D01*
X137321218Y-69410592D02*
X136755532Y-68844906D01*
X136971032Y-68629407D01*
X137051844Y-68602470D01*
X137105719Y-68602470D01*
X137186531Y-68629407D01*
X137267343Y-68710219D01*
X137294280Y-68791032D01*
X137294280Y-68844906D01*
X137267343Y-68925719D01*
X137051844Y-69141218D01*
X137644467Y-68440845D02*
X137563654Y-68467783D01*
X137509780Y-68467783D01*
X137428967Y-68440845D01*
X137402030Y-68413908D01*
X137375093Y-68333096D01*
X137375093Y-68279221D01*
X137402030Y-68198409D01*
X137509780Y-68090659D01*
X137590592Y-68063722D01*
X137644467Y-68063722D01*
X137725279Y-68090659D01*
X137752216Y-68117597D01*
X137779154Y-68198409D01*
X137779154Y-68252284D01*
X137752216Y-68333096D01*
X137644467Y-68440845D01*
X137617529Y-68521658D01*
X137617529Y-68575532D01*
X137644467Y-68656345D01*
X137752216Y-68764094D01*
X137833028Y-68791032D01*
X137886903Y-68791032D01*
X137967715Y-68764094D01*
X138075465Y-68656345D01*
X138102402Y-68575532D01*
X138102402Y-68521658D01*
X138075465Y-68440845D01*
X137967715Y-68333096D01*
X137886903Y-68306158D01*
X137833028Y-68306158D01*
X137752216Y-68333096D01*
X136513096Y-71681218D02*
X136432284Y-71708155D01*
X136351471Y-71788967D01*
X136297597Y-71896717D01*
X136297597Y-72004467D01*
X136324534Y-72085279D01*
X136405346Y-72219966D01*
X136486158Y-72300778D01*
X136620845Y-72381590D01*
X136701658Y-72408528D01*
X136809407Y-72408528D01*
X136917157Y-72354653D01*
X136971032Y-72300778D01*
X137024906Y-72193028D01*
X137024906Y-72139154D01*
X136836345Y-71950592D01*
X136728595Y-72058341D01*
X137321218Y-71950592D02*
X136755532Y-71384906D01*
X136971032Y-71169407D01*
X137051844Y-71142470D01*
X137105719Y-71142470D01*
X137186531Y-71169407D01*
X137267343Y-71250219D01*
X137294280Y-71331032D01*
X137294280Y-71384906D01*
X137267343Y-71465719D01*
X137051844Y-71681218D01*
X137913841Y-71357969D02*
X138021590Y-71250219D01*
X138048528Y-71169407D01*
X138048528Y-71115532D01*
X138021590Y-70980845D01*
X137940778Y-70846158D01*
X137725279Y-70630659D01*
X137644467Y-70603722D01*
X137590592Y-70603722D01*
X137509780Y-70630659D01*
X137402030Y-70738409D01*
X137375093Y-70819221D01*
X137375093Y-70873096D01*
X137402030Y-70953908D01*
X137536717Y-71088595D01*
X137617529Y-71115532D01*
X137671404Y-71115532D01*
X137752216Y-71088595D01*
X137859966Y-70980845D01*
X137886903Y-70900033D01*
X137886903Y-70846158D01*
X137859966Y-70765346D01*
X135989722Y-77030592D02*
X135908910Y-77057529D01*
X135828097Y-77138341D01*
X135774223Y-77246091D01*
X135774223Y-77353841D01*
X135801160Y-77434653D01*
X135881972Y-77569340D01*
X135962784Y-77650152D01*
X136097471Y-77730964D01*
X136178284Y-77757902D01*
X136286033Y-77757902D01*
X136393783Y-77704027D01*
X136447658Y-77650152D01*
X136501532Y-77542402D01*
X136501532Y-77488528D01*
X136312971Y-77299966D01*
X136205221Y-77407715D01*
X136797844Y-77299966D02*
X136232158Y-76734280D01*
X136447658Y-76518781D01*
X136528470Y-76491844D01*
X136582345Y-76491844D01*
X136663157Y-76518781D01*
X136743969Y-76599593D01*
X136770906Y-76680406D01*
X136770906Y-76734280D01*
X136743969Y-76815093D01*
X136528470Y-77030592D01*
X137659841Y-76437969D02*
X137336592Y-76761218D01*
X137498216Y-76599593D02*
X136932531Y-76033908D01*
X136959468Y-76168595D01*
X136959468Y-76276345D01*
X136932531Y-76357157D01*
X137444341Y-75522097D02*
X137498216Y-75468223D01*
X137579028Y-75441285D01*
X137632903Y-75441285D01*
X137713715Y-75468223D01*
X137848402Y-75549035D01*
X137983089Y-75683722D01*
X138063902Y-75818409D01*
X138090839Y-75899221D01*
X138090839Y-75953096D01*
X138063902Y-76033908D01*
X138010027Y-76087783D01*
X137929215Y-76114720D01*
X137875340Y-76114720D01*
X137794528Y-76087783D01*
X137659841Y-76006971D01*
X137525154Y-75872284D01*
X137444341Y-75737597D01*
X137417404Y-75656784D01*
X137417404Y-75602910D01*
X137444341Y-75522097D01*
X135843722Y-79570592D02*
X135762910Y-79597529D01*
X135682097Y-79678341D01*
X135628223Y-79786091D01*
X135628223Y-79893841D01*
X135655160Y-79974653D01*
X135735972Y-80109340D01*
X135816784Y-80190152D01*
X135951471Y-80270964D01*
X136032284Y-80297902D01*
X136140033Y-80297902D01*
X136247783Y-80244027D01*
X136301658Y-80190152D01*
X136355532Y-80082402D01*
X136355532Y-80028528D01*
X136166971Y-79839966D01*
X136059221Y-79947715D01*
X136651844Y-79839966D02*
X136086158Y-79274280D01*
X136301658Y-79058781D01*
X136382470Y-79031844D01*
X136436345Y-79031844D01*
X136517157Y-79058781D01*
X136597969Y-79139593D01*
X136624906Y-79220406D01*
X136624906Y-79274280D01*
X136597969Y-79355093D01*
X136382470Y-79570592D01*
X137513841Y-78977969D02*
X137190592Y-79301218D01*
X137352216Y-79139593D02*
X136786531Y-78573908D01*
X136813468Y-78708595D01*
X136813468Y-78816345D01*
X136786531Y-78897157D01*
X138052589Y-78439221D02*
X137729340Y-78762470D01*
X137890964Y-78600845D02*
X137325279Y-78035160D01*
X137352216Y-78169847D01*
X137352216Y-78277597D01*
X137325279Y-78358409D01*
X135843722Y-82110592D02*
X135762910Y-82137529D01*
X135682097Y-82218341D01*
X135628223Y-82326091D01*
X135628223Y-82433841D01*
X135655160Y-82514653D01*
X135735972Y-82649340D01*
X135816784Y-82730152D01*
X135951471Y-82810964D01*
X136032284Y-82837902D01*
X136140033Y-82837902D01*
X136247783Y-82784027D01*
X136301658Y-82730152D01*
X136355532Y-82622402D01*
X136355532Y-82568528D01*
X136166971Y-82379966D01*
X136059221Y-82487715D01*
X136651844Y-82379966D02*
X136086158Y-81814280D01*
X136301658Y-81598781D01*
X136382470Y-81571844D01*
X136436345Y-81571844D01*
X136517157Y-81598781D01*
X136597969Y-81679593D01*
X136624906Y-81760406D01*
X136624906Y-81814280D01*
X136597969Y-81895093D01*
X136382470Y-82110592D01*
X137513841Y-81517969D02*
X137190592Y-81841218D01*
X137352216Y-81679593D02*
X136786531Y-81113908D01*
X136813468Y-81248595D01*
X136813468Y-81356345D01*
X136786531Y-81437157D01*
X137217529Y-80790659D02*
X137217529Y-80736784D01*
X137244467Y-80655972D01*
X137379154Y-80521285D01*
X137459966Y-80494348D01*
X137513841Y-80494348D01*
X137594653Y-80521285D01*
X137648528Y-80575160D01*
X137702402Y-80682910D01*
X137702402Y-81329407D01*
X138052589Y-80979221D01*
X135989722Y-84650592D02*
X135908910Y-84677529D01*
X135828097Y-84758341D01*
X135774223Y-84866091D01*
X135774223Y-84973841D01*
X135801160Y-85054653D01*
X135881972Y-85189340D01*
X135962784Y-85270152D01*
X136097471Y-85350964D01*
X136178284Y-85377902D01*
X136286033Y-85377902D01*
X136393783Y-85324027D01*
X136447658Y-85270152D01*
X136501532Y-85162402D01*
X136501532Y-85108528D01*
X136312971Y-84919966D01*
X136205221Y-85027715D01*
X136797844Y-84919966D02*
X136232158Y-84354280D01*
X136447658Y-84138781D01*
X136528470Y-84111844D01*
X136582345Y-84111844D01*
X136663157Y-84138781D01*
X136743969Y-84219593D01*
X136770906Y-84300406D01*
X136770906Y-84354280D01*
X136743969Y-84435093D01*
X136528470Y-84650592D01*
X137659841Y-84057969D02*
X137336592Y-84381218D01*
X137498216Y-84219593D02*
X136932531Y-83653908D01*
X136959468Y-83788595D01*
X136959468Y-83896345D01*
X136932531Y-83977157D01*
X137282717Y-83303722D02*
X137632903Y-82953536D01*
X137659841Y-83357597D01*
X137740653Y-83276784D01*
X137821465Y-83249847D01*
X137875340Y-83249847D01*
X137956152Y-83276784D01*
X138090839Y-83411471D01*
X138117776Y-83492284D01*
X138117776Y-83546158D01*
X138090839Y-83626971D01*
X137929215Y-83788595D01*
X137848402Y-83815532D01*
X137794528Y-83815532D01*
X135943722Y-89730592D02*
X135862910Y-89757529D01*
X135782097Y-89838341D01*
X135728223Y-89946091D01*
X135728223Y-90053841D01*
X135755160Y-90134653D01*
X135835972Y-90269340D01*
X135916784Y-90350152D01*
X136051471Y-90430964D01*
X136132284Y-90457902D01*
X136240033Y-90457902D01*
X136347783Y-90404027D01*
X136401658Y-90350152D01*
X136455532Y-90242402D01*
X136455532Y-90188528D01*
X136266971Y-89999966D01*
X136159221Y-90107715D01*
X136751844Y-89999966D02*
X136186158Y-89434280D01*
X136401658Y-89218781D01*
X136482470Y-89191844D01*
X136536345Y-89191844D01*
X136617157Y-89218781D01*
X136697969Y-89299593D01*
X136724906Y-89380406D01*
X136724906Y-89434280D01*
X136697969Y-89515093D01*
X136482470Y-89730592D01*
X137613841Y-89137969D02*
X137290592Y-89461218D01*
X137452216Y-89299593D02*
X136886531Y-88733908D01*
X136913468Y-88868595D01*
X136913468Y-88976345D01*
X136886531Y-89057157D01*
X137721590Y-88275972D02*
X138098714Y-88653096D01*
X137371404Y-88195160D02*
X137640778Y-88733908D01*
X137990964Y-88383722D01*
X135989722Y-92270592D02*
X135908910Y-92297529D01*
X135828097Y-92378341D01*
X135774223Y-92486091D01*
X135774223Y-92593841D01*
X135801160Y-92674653D01*
X135881972Y-92809340D01*
X135962784Y-92890152D01*
X136097471Y-92970964D01*
X136178284Y-92997902D01*
X136286033Y-92997902D01*
X136393783Y-92944027D01*
X136447658Y-92890152D01*
X136501532Y-92782402D01*
X136501532Y-92728528D01*
X136312971Y-92539966D01*
X136205221Y-92647715D01*
X136797844Y-92539966D02*
X136232158Y-91974280D01*
X136447658Y-91758781D01*
X136528470Y-91731844D01*
X136582345Y-91731844D01*
X136663157Y-91758781D01*
X136743969Y-91839593D01*
X136770906Y-91920406D01*
X136770906Y-91974280D01*
X136743969Y-92055093D01*
X136528470Y-92270592D01*
X137659841Y-91677969D02*
X137336592Y-92001218D01*
X137498216Y-91839593D02*
X136932531Y-91273908D01*
X136959468Y-91408595D01*
X136959468Y-91516345D01*
X136932531Y-91597157D01*
X137605966Y-90600473D02*
X137336592Y-90869847D01*
X137579028Y-91166158D01*
X137579028Y-91112284D01*
X137605966Y-91031471D01*
X137740653Y-90896784D01*
X137821465Y-90869847D01*
X137875340Y-90869847D01*
X137956152Y-90896784D01*
X138090839Y-91031471D01*
X138117776Y-91112284D01*
X138117776Y-91166158D01*
X138090839Y-91246971D01*
X137956152Y-91381658D01*
X137875340Y-91408595D01*
X137821465Y-91408595D01*
X162097722Y-92270592D02*
X162016910Y-92297529D01*
X161936097Y-92378341D01*
X161882223Y-92486091D01*
X161882223Y-92593841D01*
X161909160Y-92674653D01*
X161989972Y-92809340D01*
X162070784Y-92890152D01*
X162205471Y-92970964D01*
X162286284Y-92997902D01*
X162394033Y-92997902D01*
X162501783Y-92944027D01*
X162555658Y-92890152D01*
X162609532Y-92782402D01*
X162609532Y-92728528D01*
X162420971Y-92539966D01*
X162313221Y-92647715D01*
X162905844Y-92539966D02*
X162340158Y-91974280D01*
X162555658Y-91758781D01*
X162636470Y-91731844D01*
X162690345Y-91731844D01*
X162771157Y-91758781D01*
X162851969Y-91839593D01*
X162878906Y-91920406D01*
X162878906Y-91974280D01*
X162851969Y-92055093D01*
X162636470Y-92270592D01*
X163767841Y-91677969D02*
X163444592Y-92001218D01*
X163606216Y-91839593D02*
X163040531Y-91273908D01*
X163067468Y-91408595D01*
X163067468Y-91516345D01*
X163040531Y-91597157D01*
X163687028Y-90627410D02*
X163579279Y-90735160D01*
X163552341Y-90815972D01*
X163552341Y-90869847D01*
X163579279Y-91004534D01*
X163660091Y-91139221D01*
X163875590Y-91354720D01*
X163956402Y-91381658D01*
X164010277Y-91381658D01*
X164091089Y-91354720D01*
X164198839Y-91246971D01*
X164225776Y-91166158D01*
X164225776Y-91112284D01*
X164198839Y-91031471D01*
X164064152Y-90896784D01*
X163983340Y-90869847D01*
X163929465Y-90869847D01*
X163848653Y-90896784D01*
X163740903Y-91004534D01*
X163713966Y-91085346D01*
X163713966Y-91139221D01*
X163740903Y-91220033D01*
X162097722Y-89730592D02*
X162016910Y-89757529D01*
X161936097Y-89838341D01*
X161882223Y-89946091D01*
X161882223Y-90053841D01*
X161909160Y-90134653D01*
X161989972Y-90269340D01*
X162070784Y-90350152D01*
X162205471Y-90430964D01*
X162286284Y-90457902D01*
X162394033Y-90457902D01*
X162501783Y-90404027D01*
X162555658Y-90350152D01*
X162609532Y-90242402D01*
X162609532Y-90188528D01*
X162420971Y-89999966D01*
X162313221Y-90107715D01*
X162905844Y-89999966D02*
X162340158Y-89434280D01*
X162555658Y-89218781D01*
X162636470Y-89191844D01*
X162690345Y-89191844D01*
X162771157Y-89218781D01*
X162851969Y-89299593D01*
X162878906Y-89380406D01*
X162878906Y-89434280D01*
X162851969Y-89515093D01*
X162636470Y-89730592D01*
X163767841Y-89137969D02*
X163444592Y-89461218D01*
X163606216Y-89299593D02*
X163040531Y-88733908D01*
X163067468Y-88868595D01*
X163067468Y-88976345D01*
X163040531Y-89057157D01*
X163390717Y-88383722D02*
X163767841Y-88006598D01*
X164091089Y-88814720D01*
X162097722Y-84650592D02*
X162016910Y-84677529D01*
X161936097Y-84758341D01*
X161882223Y-84866091D01*
X161882223Y-84973841D01*
X161909160Y-85054653D01*
X161989972Y-85189340D01*
X162070784Y-85270152D01*
X162205471Y-85350964D01*
X162286284Y-85377902D01*
X162394033Y-85377902D01*
X162501783Y-85324027D01*
X162555658Y-85270152D01*
X162609532Y-85162402D01*
X162609532Y-85108528D01*
X162420971Y-84919966D01*
X162313221Y-85027715D01*
X162905844Y-84919966D02*
X162340158Y-84354280D01*
X162555658Y-84138781D01*
X162636470Y-84111844D01*
X162690345Y-84111844D01*
X162771157Y-84138781D01*
X162851969Y-84219593D01*
X162878906Y-84300406D01*
X162878906Y-84354280D01*
X162851969Y-84435093D01*
X162636470Y-84650592D01*
X163767841Y-84057969D02*
X163444592Y-84381218D01*
X163606216Y-84219593D02*
X163040531Y-83653908D01*
X163067468Y-83788595D01*
X163067468Y-83896345D01*
X163040531Y-83977157D01*
X163767841Y-83411471D02*
X163687028Y-83438409D01*
X163633154Y-83438409D01*
X163552341Y-83411471D01*
X163525404Y-83384534D01*
X163498467Y-83303722D01*
X163498467Y-83249847D01*
X163525404Y-83169035D01*
X163633154Y-83061285D01*
X163713966Y-83034348D01*
X163767841Y-83034348D01*
X163848653Y-83061285D01*
X163875590Y-83088223D01*
X163902528Y-83169035D01*
X163902528Y-83222910D01*
X163875590Y-83303722D01*
X163767841Y-83411471D01*
X163740903Y-83492284D01*
X163740903Y-83546158D01*
X163767841Y-83626971D01*
X163875590Y-83734720D01*
X163956402Y-83761658D01*
X164010277Y-83761658D01*
X164091089Y-83734720D01*
X164198839Y-83626971D01*
X164225776Y-83546158D01*
X164225776Y-83492284D01*
X164198839Y-83411471D01*
X164091089Y-83303722D01*
X164010277Y-83276784D01*
X163956402Y-83276784D01*
X163875590Y-83303722D01*
X162097722Y-82110592D02*
X162016910Y-82137529D01*
X161936097Y-82218341D01*
X161882223Y-82326091D01*
X161882223Y-82433841D01*
X161909160Y-82514653D01*
X161989972Y-82649340D01*
X162070784Y-82730152D01*
X162205471Y-82810964D01*
X162286284Y-82837902D01*
X162394033Y-82837902D01*
X162501783Y-82784027D01*
X162555658Y-82730152D01*
X162609532Y-82622402D01*
X162609532Y-82568528D01*
X162420971Y-82379966D01*
X162313221Y-82487715D01*
X162905844Y-82379966D02*
X162340158Y-81814280D01*
X162555658Y-81598781D01*
X162636470Y-81571844D01*
X162690345Y-81571844D01*
X162771157Y-81598781D01*
X162851969Y-81679593D01*
X162878906Y-81760406D01*
X162878906Y-81814280D01*
X162851969Y-81895093D01*
X162636470Y-82110592D01*
X163767841Y-81517969D02*
X163444592Y-81841218D01*
X163606216Y-81679593D02*
X163040531Y-81113908D01*
X163067468Y-81248595D01*
X163067468Y-81356345D01*
X163040531Y-81437157D01*
X164037215Y-81248595D02*
X164144964Y-81140845D01*
X164171902Y-81060033D01*
X164171902Y-81006158D01*
X164144964Y-80871471D01*
X164064152Y-80736784D01*
X163848653Y-80521285D01*
X163767841Y-80494348D01*
X163713966Y-80494348D01*
X163633154Y-80521285D01*
X163525404Y-80629035D01*
X163498467Y-80709847D01*
X163498467Y-80763722D01*
X163525404Y-80844534D01*
X163660091Y-80979221D01*
X163740903Y-81006158D01*
X163794778Y-81006158D01*
X163875590Y-80979221D01*
X163983340Y-80871471D01*
X164010277Y-80790659D01*
X164010277Y-80736784D01*
X163983340Y-80655972D01*
X162097722Y-79570592D02*
X162016910Y-79597529D01*
X161936097Y-79678341D01*
X161882223Y-79786091D01*
X161882223Y-79893841D01*
X161909160Y-79974653D01*
X161989972Y-80109340D01*
X162070784Y-80190152D01*
X162205471Y-80270964D01*
X162286284Y-80297902D01*
X162394033Y-80297902D01*
X162501783Y-80244027D01*
X162555658Y-80190152D01*
X162609532Y-80082402D01*
X162609532Y-80028528D01*
X162420971Y-79839966D01*
X162313221Y-79947715D01*
X162905844Y-79839966D02*
X162340158Y-79274280D01*
X162555658Y-79058781D01*
X162636470Y-79031844D01*
X162690345Y-79031844D01*
X162771157Y-79058781D01*
X162851969Y-79139593D01*
X162878906Y-79220406D01*
X162878906Y-79274280D01*
X162851969Y-79355093D01*
X162636470Y-79570592D01*
X162932781Y-78789407D02*
X162932781Y-78735532D01*
X162959719Y-78654720D01*
X163094406Y-78520033D01*
X163175218Y-78493096D01*
X163229093Y-78493096D01*
X163309905Y-78520033D01*
X163363780Y-78573908D01*
X163417654Y-78681658D01*
X163417654Y-79328155D01*
X163767841Y-78977969D01*
X163552341Y-78062097D02*
X163606216Y-78008223D01*
X163687028Y-77981285D01*
X163740903Y-77981285D01*
X163821715Y-78008223D01*
X163956402Y-78089035D01*
X164091089Y-78223722D01*
X164171902Y-78358409D01*
X164198839Y-78439221D01*
X164198839Y-78493096D01*
X164171902Y-78573908D01*
X164118027Y-78627783D01*
X164037215Y-78654720D01*
X163983340Y-78654720D01*
X163902528Y-78627783D01*
X163767841Y-78546971D01*
X163633154Y-78412284D01*
X163552341Y-78277597D01*
X163525404Y-78196784D01*
X163525404Y-78142910D01*
X163552341Y-78062097D01*
X162097722Y-77040592D02*
X162016910Y-77067529D01*
X161936097Y-77148341D01*
X161882223Y-77256091D01*
X161882223Y-77363841D01*
X161909160Y-77444653D01*
X161989972Y-77579340D01*
X162070784Y-77660152D01*
X162205471Y-77740964D01*
X162286284Y-77767902D01*
X162394033Y-77767902D01*
X162501783Y-77714027D01*
X162555658Y-77660152D01*
X162609532Y-77552402D01*
X162609532Y-77498528D01*
X162420971Y-77309966D01*
X162313221Y-77417715D01*
X162905844Y-77309966D02*
X162340158Y-76744280D01*
X162555658Y-76528781D01*
X162636470Y-76501844D01*
X162690345Y-76501844D01*
X162771157Y-76528781D01*
X162851969Y-76609593D01*
X162878906Y-76690406D01*
X162878906Y-76744280D01*
X162851969Y-76825093D01*
X162636470Y-77040592D01*
X162932781Y-76259407D02*
X162932781Y-76205532D01*
X162959719Y-76124720D01*
X163094406Y-75990033D01*
X163175218Y-75963096D01*
X163229093Y-75963096D01*
X163309905Y-75990033D01*
X163363780Y-76043908D01*
X163417654Y-76151658D01*
X163417654Y-76798155D01*
X163767841Y-76447969D01*
X164306589Y-75909221D02*
X163983340Y-76232470D01*
X164144964Y-76070845D02*
X163579279Y-75505160D01*
X163606216Y-75639847D01*
X163606216Y-75747597D01*
X163579279Y-75828409D01*
X162097722Y-71950592D02*
X162016910Y-71977529D01*
X161936097Y-72058341D01*
X161882223Y-72166091D01*
X161882223Y-72273841D01*
X161909160Y-72354653D01*
X161989972Y-72489340D01*
X162070784Y-72570152D01*
X162205471Y-72650964D01*
X162286284Y-72677902D01*
X162394033Y-72677902D01*
X162501783Y-72624027D01*
X162555658Y-72570152D01*
X162609532Y-72462402D01*
X162609532Y-72408528D01*
X162420971Y-72219966D01*
X162313221Y-72327715D01*
X162905844Y-72219966D02*
X162340158Y-71654280D01*
X162555658Y-71438781D01*
X162636470Y-71411844D01*
X162690345Y-71411844D01*
X162771157Y-71438781D01*
X162851969Y-71519593D01*
X162878906Y-71600406D01*
X162878906Y-71654280D01*
X162851969Y-71735093D01*
X162636470Y-71950592D01*
X162932781Y-71169407D02*
X162932781Y-71115532D01*
X162959719Y-71034720D01*
X163094406Y-70900033D01*
X163175218Y-70873096D01*
X163229093Y-70873096D01*
X163309905Y-70900033D01*
X163363780Y-70953908D01*
X163417654Y-71061658D01*
X163417654Y-71708155D01*
X163767841Y-71357969D01*
X163471529Y-70630659D02*
X163471529Y-70576784D01*
X163498467Y-70495972D01*
X163633154Y-70361285D01*
X163713966Y-70334348D01*
X163767841Y-70334348D01*
X163848653Y-70361285D01*
X163902528Y-70415160D01*
X163956402Y-70522910D01*
X163956402Y-71169407D01*
X164306589Y-70819221D01*
X162838375Y-69693435D02*
X162380439Y-69612622D01*
X162515126Y-70016683D02*
X161949441Y-69450998D01*
X162164940Y-69235499D01*
X162245752Y-69208561D01*
X162299627Y-69208561D01*
X162380439Y-69235499D01*
X162461251Y-69316311D01*
X162488189Y-69397123D01*
X162488189Y-69450998D01*
X162461251Y-69531810D01*
X162245752Y-69747309D01*
X162515126Y-68885312D02*
X162973062Y-69343248D01*
X163053874Y-69370186D01*
X163107749Y-69370186D01*
X163188561Y-69343248D01*
X163296311Y-69235499D01*
X163323248Y-69154687D01*
X163323248Y-69100812D01*
X163296311Y-69019999D01*
X162838375Y-68562064D01*
X163673435Y-68858375D02*
X163107749Y-68292690D01*
X163996683Y-68535126D01*
X163430998Y-67969441D01*
X162097722Y-66870592D02*
X162016910Y-66897529D01*
X161936097Y-66978341D01*
X161882223Y-67086091D01*
X161882223Y-67193841D01*
X161909160Y-67274653D01*
X161989972Y-67409340D01*
X162070784Y-67490152D01*
X162205471Y-67570964D01*
X162286284Y-67597902D01*
X162394033Y-67597902D01*
X162501783Y-67544027D01*
X162555658Y-67490152D01*
X162609532Y-67382402D01*
X162609532Y-67328528D01*
X162420971Y-67139966D01*
X162313221Y-67247715D01*
X162905844Y-67139966D02*
X162340158Y-66574280D01*
X162555658Y-66358781D01*
X162636470Y-66331844D01*
X162690345Y-66331844D01*
X162771157Y-66358781D01*
X162851969Y-66439593D01*
X162878906Y-66520406D01*
X162878906Y-66574280D01*
X162851969Y-66655093D01*
X162636470Y-66870592D01*
X162932781Y-66089407D02*
X162932781Y-66035532D01*
X162959719Y-65954720D01*
X163094406Y-65820033D01*
X163175218Y-65793096D01*
X163229093Y-65793096D01*
X163309905Y-65820033D01*
X163363780Y-65873908D01*
X163417654Y-65981658D01*
X163417654Y-66628155D01*
X163767841Y-66277969D01*
X163687028Y-65227410D02*
X163579279Y-65335160D01*
X163552341Y-65415972D01*
X163552341Y-65469847D01*
X163579279Y-65604534D01*
X163660091Y-65739221D01*
X163875590Y-65954720D01*
X163956402Y-65981658D01*
X164010277Y-65981658D01*
X164091089Y-65954720D01*
X164198839Y-65846971D01*
X164225776Y-65766158D01*
X164225776Y-65712284D01*
X164198839Y-65631471D01*
X164064152Y-65496784D01*
X163983340Y-65469847D01*
X163929465Y-65469847D01*
X163848653Y-65496784D01*
X163740903Y-65604534D01*
X163713966Y-65685346D01*
X163713966Y-65739221D01*
X163740903Y-65820033D01*
X162097722Y-64340592D02*
X162016910Y-64367529D01*
X161936097Y-64448341D01*
X161882223Y-64556091D01*
X161882223Y-64663841D01*
X161909160Y-64744653D01*
X161989972Y-64879340D01*
X162070784Y-64960152D01*
X162205471Y-65040964D01*
X162286284Y-65067902D01*
X162394033Y-65067902D01*
X162501783Y-65014027D01*
X162555658Y-64960152D01*
X162609532Y-64852402D01*
X162609532Y-64798528D01*
X162420971Y-64609966D01*
X162313221Y-64717715D01*
X162905844Y-64609966D02*
X162340158Y-64044280D01*
X162555658Y-63828781D01*
X162636470Y-63801844D01*
X162690345Y-63801844D01*
X162771157Y-63828781D01*
X162851969Y-63909593D01*
X162878906Y-63990406D01*
X162878906Y-64044280D01*
X162851969Y-64125093D01*
X162636470Y-64340592D01*
X162932781Y-63559407D02*
X162932781Y-63505532D01*
X162959719Y-63424720D01*
X163094406Y-63290033D01*
X163175218Y-63263096D01*
X163229093Y-63263096D01*
X163309905Y-63290033D01*
X163363780Y-63343908D01*
X163417654Y-63451658D01*
X163417654Y-64098155D01*
X163767841Y-63747969D01*
X163390717Y-62993722D02*
X163767841Y-62616598D01*
X164091089Y-63424720D01*
X162097722Y-58996592D02*
X162016910Y-59023529D01*
X161936097Y-59104341D01*
X161882223Y-59212091D01*
X161882223Y-59319841D01*
X161909160Y-59400653D01*
X161989972Y-59535340D01*
X162070784Y-59616152D01*
X162205471Y-59696964D01*
X162286284Y-59723902D01*
X162394033Y-59723902D01*
X162501783Y-59670027D01*
X162555658Y-59616152D01*
X162609532Y-59508402D01*
X162609532Y-59454528D01*
X162420971Y-59265966D01*
X162313221Y-59373715D01*
X162905844Y-59265966D02*
X162340158Y-58700280D01*
X162555658Y-58484781D01*
X162636470Y-58457844D01*
X162690345Y-58457844D01*
X162771157Y-58484781D01*
X162851969Y-58565593D01*
X162878906Y-58646406D01*
X162878906Y-58700280D01*
X162851969Y-58781093D01*
X162636470Y-58996592D01*
X162932781Y-58215407D02*
X162932781Y-58161532D01*
X162959719Y-58080720D01*
X163094406Y-57946033D01*
X163175218Y-57919096D01*
X163229093Y-57919096D01*
X163309905Y-57946033D01*
X163363780Y-57999908D01*
X163417654Y-58107658D01*
X163417654Y-58754155D01*
X163767841Y-58403969D01*
X163767841Y-57757471D02*
X163687028Y-57784409D01*
X163633154Y-57784409D01*
X163552341Y-57757471D01*
X163525404Y-57730534D01*
X163498467Y-57649722D01*
X163498467Y-57595847D01*
X163525404Y-57515035D01*
X163633154Y-57407285D01*
X163713966Y-57380348D01*
X163767841Y-57380348D01*
X163848653Y-57407285D01*
X163875590Y-57434223D01*
X163902528Y-57515035D01*
X163902528Y-57568910D01*
X163875590Y-57649722D01*
X163767841Y-57757471D01*
X163740903Y-57838284D01*
X163740903Y-57892158D01*
X163767841Y-57972971D01*
X163875590Y-58080720D01*
X163956402Y-58107658D01*
X164010277Y-58107658D01*
X164091089Y-58080720D01*
X164198839Y-57972971D01*
X164225776Y-57892158D01*
X164225776Y-57838284D01*
X164198839Y-57757471D01*
X164091089Y-57649722D01*
X164010277Y-57622784D01*
X163956402Y-57622784D01*
X163875590Y-57649722D01*
X162154788Y-57283773D02*
X162424162Y-57014399D01*
X162262537Y-57499272D02*
X161885414Y-56745025D01*
X162639661Y-57122149D01*
X162828223Y-56933587D02*
X162262537Y-56367902D01*
X162397224Y-56233215D01*
X162504974Y-56179340D01*
X162612723Y-56179340D01*
X162693536Y-56206277D01*
X162828223Y-56287089D01*
X162909035Y-56367902D01*
X162989847Y-56502589D01*
X163016784Y-56583401D01*
X163016784Y-56691150D01*
X162962910Y-56798900D01*
X162828223Y-56933587D01*
X163663282Y-55990778D02*
X163663282Y-56044653D01*
X163609407Y-56152402D01*
X163555532Y-56206277D01*
X163447783Y-56260152D01*
X163340033Y-56260152D01*
X163259221Y-56233215D01*
X163124534Y-56152402D01*
X163043722Y-56071590D01*
X162962910Y-55936903D01*
X162935972Y-55856091D01*
X162935972Y-55748341D01*
X162989847Y-55640592D01*
X163043722Y-55586717D01*
X163151471Y-55532842D01*
X163205346Y-55532842D01*
X163878781Y-55990778D02*
X164309780Y-55559780D01*
X163744094Y-54886345D02*
X164498341Y-55263468D01*
X164121218Y-54509221D01*
X165198714Y-54563096D02*
X164740778Y-54482284D01*
X164875465Y-54886345D02*
X164309780Y-54320659D01*
X164525279Y-54105160D01*
X164606091Y-54078223D01*
X164659966Y-54078223D01*
X164740778Y-54105160D01*
X164821590Y-54185972D01*
X164848528Y-54266784D01*
X164848528Y-54320659D01*
X164821590Y-54401471D01*
X164606091Y-54616971D01*
X165144839Y-54024348D02*
X165333401Y-53835786D01*
X165710524Y-54051285D02*
X165441150Y-54320659D01*
X164875465Y-53754974D01*
X165144839Y-53485600D01*
X165845211Y-53323975D02*
X165656650Y-53512537D01*
X165952961Y-53808849D02*
X165387276Y-53243163D01*
X165656650Y-52973789D01*
X161889847Y-54240592D02*
X162240033Y-53890406D01*
X162266971Y-54294467D01*
X162347783Y-54213654D01*
X162428595Y-54186717D01*
X162482470Y-54186717D01*
X162563282Y-54213654D01*
X162697969Y-54348341D01*
X162724906Y-54429154D01*
X162724906Y-54483028D01*
X162697969Y-54563841D01*
X162536345Y-54725465D01*
X162455532Y-54752402D01*
X162401658Y-54752402D01*
X162401658Y-53728781D02*
X163155905Y-54105905D01*
X162778781Y-53351658D01*
X162913468Y-53216971D02*
X163263654Y-52866784D01*
X163290592Y-53270845D01*
X163371404Y-53190033D01*
X163452216Y-53163096D01*
X163506091Y-53163096D01*
X163586903Y-53190033D01*
X163721590Y-53324720D01*
X163748528Y-53405532D01*
X163748528Y-53459407D01*
X163721590Y-53540219D01*
X163559966Y-53701844D01*
X163479154Y-53728781D01*
X163425279Y-53728781D01*
X161922131Y-51708308D02*
X162272317Y-51358122D01*
X162299255Y-51762183D01*
X162380067Y-51681370D01*
X162460879Y-51654433D01*
X162514754Y-51654433D01*
X162595566Y-51681370D01*
X162730253Y-51816057D01*
X162757190Y-51896870D01*
X162757190Y-51950744D01*
X162730253Y-52031557D01*
X162568629Y-52193181D01*
X162487816Y-52220118D01*
X162433942Y-52220118D01*
X162433942Y-51196497D02*
X163188189Y-51573621D01*
X162811065Y-50819374D01*
X162945752Y-50684687D02*
X163295938Y-50334500D01*
X163322876Y-50738561D01*
X163403688Y-50657749D01*
X163484500Y-50630812D01*
X163538375Y-50630812D01*
X163619187Y-50657749D01*
X163753874Y-50792436D01*
X163780812Y-50873248D01*
X163780812Y-50927123D01*
X163753874Y-51007935D01*
X163592250Y-51169560D01*
X163511438Y-51196497D01*
X163457563Y-51196497D01*
X164023248Y-50846311D02*
X164454247Y-50415312D01*
X164238748Y-49930439D02*
X164427309Y-49741877D01*
X164804433Y-49957377D02*
X164535059Y-50226751D01*
X163969374Y-49661065D01*
X164238748Y-49391691D01*
X165046870Y-49714940D02*
X164481184Y-49149255D01*
X165370118Y-49391691D01*
X164804433Y-48826006D01*
X161920473Y-46819966D02*
X162674720Y-47197089D01*
X162297597Y-46442842D01*
X162997969Y-46819966D02*
X163105719Y-46766091D01*
X163240406Y-46631404D01*
X163267343Y-46550592D01*
X163267343Y-46496717D01*
X163240406Y-46415905D01*
X163186531Y-46362030D01*
X163105719Y-46335093D01*
X163051844Y-46335093D01*
X162971032Y-46362030D01*
X162836345Y-46442842D01*
X162755532Y-46469780D01*
X162701658Y-46469780D01*
X162620845Y-46442842D01*
X162566971Y-46388967D01*
X162540033Y-46308155D01*
X162540033Y-46254280D01*
X162566971Y-46173468D01*
X162701658Y-46038781D01*
X162809407Y-45984906D01*
X163428967Y-45904094D02*
X163698341Y-46173468D01*
X162944094Y-45796345D02*
X163428967Y-45904094D01*
X163321218Y-45419221D01*
X164021590Y-45796345D02*
X164129340Y-45742470D01*
X164264027Y-45607783D01*
X164290964Y-45526971D01*
X164290964Y-45473096D01*
X164264027Y-45392284D01*
X164210152Y-45338409D01*
X164129340Y-45311471D01*
X164075465Y-45311471D01*
X163994653Y-45338409D01*
X163859966Y-45419221D01*
X163779154Y-45446158D01*
X163725279Y-45446158D01*
X163644467Y-45419221D01*
X163590592Y-45365346D01*
X163563654Y-45284534D01*
X163563654Y-45230659D01*
X163590592Y-45149847D01*
X163725279Y-45015160D01*
X163833028Y-44961285D01*
X161953129Y-44277309D02*
X162707377Y-44654433D01*
X162330253Y-43900186D01*
X162976751Y-43792436D02*
X163084500Y-43738561D01*
X163138375Y-43738561D01*
X163219187Y-43765499D01*
X163300000Y-43846311D01*
X163326937Y-43927123D01*
X163326937Y-43980998D01*
X163300000Y-44061810D01*
X163084500Y-44277309D01*
X162518815Y-43711624D01*
X162707377Y-43523062D01*
X162788189Y-43496125D01*
X162842064Y-43496125D01*
X162922876Y-43523062D01*
X162976751Y-43576937D01*
X163003688Y-43657749D01*
X163003688Y-43711624D01*
X162976751Y-43792436D01*
X162788189Y-43980998D01*
X163084500Y-43145938D02*
X163542436Y-43603874D01*
X163623248Y-43630812D01*
X163677123Y-43630812D01*
X163757935Y-43603874D01*
X163865685Y-43496125D01*
X163892622Y-43415312D01*
X163892622Y-43361438D01*
X163865685Y-43280625D01*
X163407749Y-42822690D01*
X164188934Y-43119001D02*
X164296683Y-43065126D01*
X164431370Y-42930439D01*
X164458308Y-42849627D01*
X164458308Y-42795752D01*
X164431370Y-42714940D01*
X164377496Y-42661065D01*
X164296683Y-42634128D01*
X164242809Y-42634128D01*
X164161996Y-42661065D01*
X164027309Y-42741877D01*
X163946497Y-42768815D01*
X163892622Y-42768815D01*
X163811810Y-42741877D01*
X163757935Y-42688003D01*
X163730998Y-42607190D01*
X163730998Y-42553316D01*
X163757935Y-42472503D01*
X163892622Y-42337816D01*
X164000372Y-42283942D01*
X136486158Y-48848155D02*
X136405346Y-48875093D01*
X136324534Y-48955905D01*
X136270659Y-49063654D01*
X136270659Y-49171404D01*
X136297597Y-49252216D01*
X136378409Y-49386903D01*
X136459221Y-49467715D01*
X136593908Y-49548528D01*
X136674720Y-49575465D01*
X136782470Y-49575465D01*
X136890219Y-49521590D01*
X136944094Y-49467715D01*
X136997969Y-49359966D01*
X136997969Y-49306091D01*
X136809407Y-49117529D01*
X136701658Y-49225279D01*
X137294280Y-49117529D02*
X136728595Y-48551844D01*
X137617529Y-48794280D01*
X137051844Y-48228595D01*
X137886903Y-48524906D02*
X137321218Y-47959221D01*
X137455905Y-47824534D01*
X137563654Y-47770659D01*
X137671404Y-47770659D01*
X137752216Y-47797597D01*
X137886903Y-47878409D01*
X137967715Y-47959221D01*
X138048528Y-48093908D01*
X138075465Y-48174720D01*
X138075465Y-48282470D01*
X138021590Y-48390219D01*
X137886903Y-48524906D01*
X136486158Y-61548155D02*
X136405346Y-61575093D01*
X136324534Y-61655905D01*
X136270659Y-61763654D01*
X136270659Y-61871404D01*
X136297597Y-61952216D01*
X136378409Y-62086903D01*
X136459221Y-62167715D01*
X136593908Y-62248528D01*
X136674720Y-62275465D01*
X136782470Y-62275465D01*
X136890219Y-62221590D01*
X136944094Y-62167715D01*
X136997969Y-62059966D01*
X136997969Y-62006091D01*
X136809407Y-61817529D01*
X136701658Y-61925279D01*
X137294280Y-61817529D02*
X136728595Y-61251844D01*
X137617529Y-61494280D01*
X137051844Y-60928595D01*
X137886903Y-61224906D02*
X137321218Y-60659221D01*
X137455905Y-60524534D01*
X137563654Y-60470659D01*
X137671404Y-60470659D01*
X137752216Y-60497597D01*
X137886903Y-60578409D01*
X137967715Y-60659221D01*
X138048528Y-60793908D01*
X138075465Y-60874720D01*
X138075465Y-60982470D01*
X138021590Y-61090219D01*
X137886903Y-61224906D01*
X136486158Y-74248155D02*
X136405346Y-74275093D01*
X136324534Y-74355905D01*
X136270659Y-74463654D01*
X136270659Y-74571404D01*
X136297597Y-74652216D01*
X136378409Y-74786903D01*
X136459221Y-74867715D01*
X136593908Y-74948528D01*
X136674720Y-74975465D01*
X136782470Y-74975465D01*
X136890219Y-74921590D01*
X136944094Y-74867715D01*
X136997969Y-74759966D01*
X136997969Y-74706091D01*
X136809407Y-74517529D01*
X136701658Y-74625279D01*
X137294280Y-74517529D02*
X136728595Y-73951844D01*
X137617529Y-74194280D01*
X137051844Y-73628595D01*
X137886903Y-73924906D02*
X137321218Y-73359221D01*
X137455905Y-73224534D01*
X137563654Y-73170659D01*
X137671404Y-73170659D01*
X137752216Y-73197597D01*
X137886903Y-73278409D01*
X137967715Y-73359221D01*
X138048528Y-73493908D01*
X138075465Y-73574720D01*
X138075465Y-73682470D01*
X138021590Y-73790219D01*
X137886903Y-73924906D01*
X136486158Y-86948155D02*
X136405346Y-86975093D01*
X136324534Y-87055905D01*
X136270659Y-87163654D01*
X136270659Y-87271404D01*
X136297597Y-87352216D01*
X136378409Y-87486903D01*
X136459221Y-87567715D01*
X136593908Y-87648528D01*
X136674720Y-87675465D01*
X136782470Y-87675465D01*
X136890219Y-87621590D01*
X136944094Y-87567715D01*
X136997969Y-87459966D01*
X136997969Y-87406091D01*
X136809407Y-87217529D01*
X136701658Y-87325279D01*
X137294280Y-87217529D02*
X136728595Y-86651844D01*
X137617529Y-86894280D01*
X137051844Y-86328595D01*
X137886903Y-86624906D02*
X137321218Y-86059221D01*
X137455905Y-85924534D01*
X137563654Y-85870659D01*
X137671404Y-85870659D01*
X137752216Y-85897597D01*
X137886903Y-85978409D01*
X137967715Y-86059221D01*
X138048528Y-86193908D01*
X138075465Y-86274720D01*
X138075465Y-86382470D01*
X138021590Y-86490219D01*
X137886903Y-86624906D01*
X162086158Y-86948155D02*
X162005346Y-86975093D01*
X161924534Y-87055905D01*
X161870659Y-87163654D01*
X161870659Y-87271404D01*
X161897597Y-87352216D01*
X161978409Y-87486903D01*
X162059221Y-87567715D01*
X162193908Y-87648528D01*
X162274720Y-87675465D01*
X162382470Y-87675465D01*
X162490219Y-87621590D01*
X162544094Y-87567715D01*
X162597969Y-87459966D01*
X162597969Y-87406091D01*
X162409407Y-87217529D01*
X162301658Y-87325279D01*
X162894280Y-87217529D02*
X162328595Y-86651844D01*
X163217529Y-86894280D01*
X162651844Y-86328595D01*
X163486903Y-86624906D02*
X162921218Y-86059221D01*
X163055905Y-85924534D01*
X163163654Y-85870659D01*
X163271404Y-85870659D01*
X163352216Y-85897597D01*
X163486903Y-85978409D01*
X163567715Y-86059221D01*
X163648528Y-86193908D01*
X163675465Y-86274720D01*
X163675465Y-86382470D01*
X163621590Y-86490219D01*
X163486903Y-86624906D01*
X162086158Y-74248155D02*
X162005346Y-74275093D01*
X161924534Y-74355905D01*
X161870659Y-74463654D01*
X161870659Y-74571404D01*
X161897597Y-74652216D01*
X161978409Y-74786903D01*
X162059221Y-74867715D01*
X162193908Y-74948528D01*
X162274720Y-74975465D01*
X162382470Y-74975465D01*
X162490219Y-74921590D01*
X162544094Y-74867715D01*
X162597969Y-74759966D01*
X162597969Y-74706091D01*
X162409407Y-74517529D01*
X162301658Y-74625279D01*
X162894280Y-74517529D02*
X162328595Y-73951844D01*
X163217529Y-74194280D01*
X162651844Y-73628595D01*
X163486903Y-73924906D02*
X162921218Y-73359221D01*
X163055905Y-73224534D01*
X163163654Y-73170659D01*
X163271404Y-73170659D01*
X163352216Y-73197597D01*
X163486903Y-73278409D01*
X163567715Y-73359221D01*
X163648528Y-73493908D01*
X163675465Y-73574720D01*
X163675465Y-73682470D01*
X163621590Y-73790219D01*
X163486903Y-73924906D01*
X162086158Y-48848155D02*
X162005346Y-48875093D01*
X161924534Y-48955905D01*
X161870659Y-49063654D01*
X161870659Y-49171404D01*
X161897597Y-49252216D01*
X161978409Y-49386903D01*
X162059221Y-49467715D01*
X162193908Y-49548528D01*
X162274720Y-49575465D01*
X162382470Y-49575465D01*
X162490219Y-49521590D01*
X162544094Y-49467715D01*
X162597969Y-49359966D01*
X162597969Y-49306091D01*
X162409407Y-49117529D01*
X162301658Y-49225279D01*
X162894280Y-49117529D02*
X162328595Y-48551844D01*
X163217529Y-48794280D01*
X162651844Y-48228595D01*
X163486903Y-48524906D02*
X162921218Y-47959221D01*
X163055905Y-47824534D01*
X163163654Y-47770659D01*
X163271404Y-47770659D01*
X163352216Y-47797597D01*
X163486903Y-47878409D01*
X163567715Y-47959221D01*
X163648528Y-48093908D01*
X163675465Y-48174720D01*
X163675465Y-48282470D01*
X163621590Y-48390219D01*
X163486903Y-48524906D01*
X162151597Y-62490964D02*
X162420971Y-62221590D01*
X162259346Y-62706463D02*
X161882223Y-61952216D01*
X162636470Y-62329340D01*
X162582595Y-61305719D02*
X162501783Y-61332656D01*
X162420971Y-61413468D01*
X162367096Y-61521218D01*
X162367096Y-61628967D01*
X162394033Y-61709780D01*
X162474845Y-61844467D01*
X162555658Y-61925279D01*
X162690345Y-62006091D01*
X162771157Y-62033028D01*
X162878906Y-62033028D01*
X162986656Y-61979154D01*
X163040531Y-61925279D01*
X163094406Y-61817529D01*
X163094406Y-61763654D01*
X162905844Y-61575093D01*
X162798094Y-61682842D01*
X163390717Y-61575093D02*
X162825032Y-61009407D01*
X163713966Y-61251844D01*
X163148280Y-60686158D01*
X163983340Y-60982470D02*
X163417654Y-60416784D01*
X163552341Y-60282097D01*
X163660091Y-60228223D01*
X163767841Y-60228223D01*
X163848653Y-60255160D01*
X163983340Y-60335972D01*
X164064152Y-60416784D01*
X164144964Y-60551471D01*
X164171902Y-60632284D01*
X164171902Y-60740033D01*
X164118027Y-60847783D01*
X163983340Y-60982470D01*
X142490476Y-94273809D02*
X142604761Y-94311904D01*
X142795238Y-94311904D01*
X142871428Y-94273809D01*
X142909523Y-94235714D01*
X142947619Y-94159523D01*
X142947619Y-94083333D01*
X142909523Y-94007142D01*
X142871428Y-93969047D01*
X142795238Y-93930952D01*
X142642857Y-93892857D01*
X142566666Y-93854761D01*
X142528571Y-93816666D01*
X142490476Y-93740476D01*
X142490476Y-93664285D01*
X142528571Y-93588095D01*
X142566666Y-93550000D01*
X142642857Y-93511904D01*
X142833333Y-93511904D01*
X142947619Y-93550000D01*
X143214285Y-93511904D02*
X143404761Y-94311904D01*
X143557142Y-93740476D01*
X143709523Y-94311904D01*
X143900000Y-93511904D01*
X144661904Y-94235714D02*
X144623809Y-94273809D01*
X144509523Y-94311904D01*
X144433333Y-94311904D01*
X144319047Y-94273809D01*
X144242857Y-94197619D01*
X144204761Y-94121428D01*
X144166666Y-93969047D01*
X144166666Y-93854761D01*
X144204761Y-93702380D01*
X144242857Y-93626190D01*
X144319047Y-93550000D01*
X144433333Y-93511904D01*
X144509523Y-93511904D01*
X144623809Y-93550000D01*
X144661904Y-93588095D01*
X145385714Y-94311904D02*
X145004761Y-94311904D01*
X145004761Y-93511904D01*
X145652380Y-94311904D02*
X145652380Y-93511904D01*
X146109523Y-94311904D02*
X145766666Y-93854761D01*
X146109523Y-93511904D02*
X145652380Y-93969047D01*
X153904761Y-94273809D02*
X154019047Y-94311904D01*
X154209523Y-94311904D01*
X154285714Y-94273809D01*
X154323809Y-94235714D01*
X154361904Y-94159523D01*
X154361904Y-94083333D01*
X154323809Y-94007142D01*
X154285714Y-93969047D01*
X154209523Y-93930952D01*
X154057142Y-93892857D01*
X153980952Y-93854761D01*
X153942857Y-93816666D01*
X153904761Y-93740476D01*
X153904761Y-93664285D01*
X153942857Y-93588095D01*
X153980952Y-93550000D01*
X154057142Y-93511904D01*
X154247619Y-93511904D01*
X154361904Y-93550000D01*
X154628571Y-93511904D02*
X154819047Y-94311904D01*
X154971428Y-93740476D01*
X155123809Y-94311904D01*
X155314285Y-93511904D01*
X155619047Y-94311904D02*
X155619047Y-93511904D01*
X155809523Y-93511904D01*
X155923809Y-93550000D01*
X156000000Y-93626190D01*
X156038095Y-93702380D01*
X156076190Y-93854761D01*
X156076190Y-93969047D01*
X156038095Y-94121428D01*
X156000000Y-94197619D01*
X155923809Y-94273809D01*
X155809523Y-94311904D01*
X155619047Y-94311904D01*
X156419047Y-94311904D02*
X156419047Y-93511904D01*
X156952380Y-93511904D02*
X157104761Y-93511904D01*
X157180952Y-93550000D01*
X157257142Y-93626190D01*
X157295238Y-93778571D01*
X157295238Y-94045238D01*
X157257142Y-94197619D01*
X157180952Y-94273809D01*
X157104761Y-94311904D01*
X156952380Y-94311904D01*
X156876190Y-94273809D01*
X156800000Y-94197619D01*
X156761904Y-94045238D01*
X156761904Y-93778571D01*
X156800000Y-93626190D01*
X156876190Y-93550000D01*
X156952380Y-93511904D01*
%TO.C,VR1*%
D15*
X150325770Y-118919715D02*
X150935370Y-118716515D01*
X150325770Y-118513315D01*
X150935370Y-117961772D02*
X150645084Y-118164972D01*
X150935370Y-118310115D02*
X150325770Y-118310115D01*
X150325770Y-118077887D01*
X150354799Y-118019830D01*
X150383827Y-117990801D01*
X150441884Y-117961772D01*
X150528970Y-117961772D01*
X150587027Y-117990801D01*
X150616056Y-118019830D01*
X150645084Y-118077887D01*
X150645084Y-118310115D01*
X150935370Y-117381201D02*
X150935370Y-117729544D01*
X150935370Y-117555372D02*
X150325770Y-117555372D01*
X150412856Y-117613430D01*
X150470913Y-117671487D01*
X150499941Y-117729544D01*
X140013370Y-127846001D02*
X139403770Y-127846001D01*
X139403770Y-127613772D01*
X139432799Y-127555715D01*
X139461827Y-127526687D01*
X139519884Y-127497658D01*
X139606970Y-127497658D01*
X139665027Y-127526687D01*
X139694056Y-127555715D01*
X139723084Y-127613772D01*
X139723084Y-127846001D01*
X139403770Y-127120287D02*
X139403770Y-127004172D01*
X139432799Y-126946115D01*
X139490856Y-126888058D01*
X139606970Y-126859030D01*
X139810170Y-126859030D01*
X139926284Y-126888058D01*
X139984341Y-126946115D01*
X140013370Y-127004172D01*
X140013370Y-127120287D01*
X139984341Y-127178344D01*
X139926284Y-127236401D01*
X139810170Y-127265430D01*
X139606970Y-127265430D01*
X139490856Y-127236401D01*
X139432799Y-127178344D01*
X139403770Y-127120287D01*
X139403770Y-126684858D02*
X139403770Y-126336515D01*
X140013370Y-126510687D02*
X139403770Y-126510687D01*
X139694056Y-126133315D02*
X139694056Y-125930115D01*
X140013370Y-125843030D02*
X140013370Y-126133315D01*
X139403770Y-126133315D01*
X139403770Y-125843030D01*
X140013370Y-125581772D02*
X139403770Y-125581772D01*
X140013370Y-125233430D01*
X139403770Y-125233430D01*
X139403770Y-125030230D02*
X139403770Y-124681887D01*
X140013370Y-124856058D02*
X139403770Y-124856058D01*
X140013370Y-124478687D02*
X139403770Y-124478687D01*
X139403770Y-124072287D02*
X139403770Y-123956172D01*
X139432799Y-123898115D01*
X139490856Y-123840058D01*
X139606970Y-123811030D01*
X139810170Y-123811030D01*
X139926284Y-123840058D01*
X139984341Y-123898115D01*
X140013370Y-123956172D01*
X140013370Y-124072287D01*
X139984341Y-124130344D01*
X139926284Y-124188401D01*
X139810170Y-124217430D01*
X139606970Y-124217430D01*
X139490856Y-124188401D01*
X139432799Y-124130344D01*
X139403770Y-124072287D01*
X140013370Y-123549772D02*
X139403770Y-123549772D01*
X139839199Y-123346572D01*
X139403770Y-123143372D01*
X140013370Y-123143372D01*
X139694056Y-122853087D02*
X139694056Y-122649887D01*
X140013370Y-122562801D02*
X140013370Y-122853087D01*
X139403770Y-122853087D01*
X139403770Y-122562801D01*
X139403770Y-122388630D02*
X139403770Y-122040287D01*
X140013370Y-122214458D02*
X139403770Y-122214458D01*
X139694056Y-121837087D02*
X139694056Y-121633887D01*
X140013370Y-121546801D02*
X140013370Y-121837087D01*
X139403770Y-121837087D01*
X139403770Y-121546801D01*
X140013370Y-120937201D02*
X139723084Y-121140401D01*
X140013370Y-121285544D02*
X139403770Y-121285544D01*
X139403770Y-121053315D01*
X139432799Y-120995258D01*
X139461827Y-120966230D01*
X139519884Y-120937201D01*
X139606970Y-120937201D01*
X139665027Y-120966230D01*
X139694056Y-120995258D01*
X139723084Y-121053315D01*
X139723084Y-121285544D01*
X140071427Y-120821087D02*
X140071427Y-120356630D01*
X139984341Y-120240515D02*
X140013370Y-120153430D01*
X140013370Y-120008287D01*
X139984341Y-119950230D01*
X139955313Y-119921201D01*
X139897256Y-119892172D01*
X139839199Y-119892172D01*
X139781141Y-119921201D01*
X139752113Y-119950230D01*
X139723084Y-120008287D01*
X139694056Y-120124401D01*
X139665027Y-120182458D01*
X139635999Y-120211487D01*
X139577941Y-120240515D01*
X139519884Y-120240515D01*
X139461827Y-120211487D01*
X139432799Y-120182458D01*
X139403770Y-120124401D01*
X139403770Y-119979258D01*
X139432799Y-119892172D01*
X140013370Y-119340630D02*
X140013370Y-119630915D01*
X139403770Y-119630915D01*
X140013370Y-119137430D02*
X139403770Y-119137430D01*
X140013370Y-118847144D02*
X139403770Y-118847144D01*
X139403770Y-118702001D01*
X139432799Y-118614915D01*
X139490856Y-118556858D01*
X139548913Y-118527830D01*
X139665027Y-118498801D01*
X139752113Y-118498801D01*
X139868227Y-118527830D01*
X139926284Y-118556858D01*
X139984341Y-118614915D01*
X140013370Y-118702001D01*
X140013370Y-118847144D01*
X139694056Y-118237544D02*
X139694056Y-118034344D01*
X140013370Y-117947258D02*
X140013370Y-118237544D01*
X139403770Y-118237544D01*
X139403770Y-117947258D01*
X139781141Y-117686001D02*
X139781141Y-117221544D01*
X139403770Y-116989315D02*
X139403770Y-116611944D01*
X139635999Y-116815144D01*
X139635999Y-116728058D01*
X139665027Y-116670001D01*
X139694056Y-116640972D01*
X139752113Y-116611944D01*
X139897256Y-116611944D01*
X139955313Y-116640972D01*
X139984341Y-116670001D01*
X140013370Y-116728058D01*
X140013370Y-116902230D01*
X139984341Y-116960287D01*
X139955313Y-116989315D01*
X139403770Y-116234572D02*
X139403770Y-116176515D01*
X139432799Y-116118458D01*
X139461827Y-116089430D01*
X139519884Y-116060401D01*
X139635999Y-116031372D01*
X139781141Y-116031372D01*
X139897256Y-116060401D01*
X139955313Y-116089430D01*
X139984341Y-116118458D01*
X140013370Y-116176515D01*
X140013370Y-116234572D01*
X139984341Y-116292630D01*
X139955313Y-116321658D01*
X139897256Y-116350687D01*
X139781141Y-116379715D01*
X139635999Y-116379715D01*
X139519884Y-116350687D01*
X139461827Y-116321658D01*
X139432799Y-116292630D01*
X139403770Y-116234572D01*
X140013370Y-115770115D02*
X139403770Y-115770115D01*
X139839199Y-115566915D01*
X139403770Y-115363715D01*
X140013370Y-115363715D01*
X140013370Y-115073430D02*
X139403770Y-115073430D01*
X139839199Y-114870230D01*
X139403770Y-114667030D01*
X140013370Y-114667030D01*
X139781141Y-114376744D02*
X139781141Y-113912287D01*
X140013370Y-113302687D02*
X140013370Y-113651030D01*
X140013370Y-113476858D02*
X139403770Y-113476858D01*
X139490856Y-113534915D01*
X139548913Y-113592972D01*
X139577941Y-113651030D01*
X140071427Y-113186572D02*
X140071427Y-112722115D01*
X140013370Y-112257658D02*
X140013370Y-112606001D01*
X140013370Y-112431830D02*
X139403770Y-112431830D01*
X139490856Y-112489887D01*
X139548913Y-112547944D01*
X139577941Y-112606001D01*
X139403770Y-111880287D02*
X139403770Y-111822230D01*
X139432799Y-111764172D01*
X139461827Y-111735144D01*
X139519884Y-111706115D01*
X139635999Y-111677087D01*
X139781141Y-111677087D01*
X139897256Y-111706115D01*
X139955313Y-111735144D01*
X139984341Y-111764172D01*
X140013370Y-111822230D01*
X140013370Y-111880287D01*
X139984341Y-111938344D01*
X139955313Y-111967372D01*
X139897256Y-111996401D01*
X139781141Y-112025430D01*
X139635999Y-112025430D01*
X139519884Y-111996401D01*
X139461827Y-111967372D01*
X139432799Y-111938344D01*
X139403770Y-111880287D01*
X139403770Y-111473887D02*
X140013370Y-111328744D01*
X139577941Y-111212630D01*
X140013370Y-111096515D01*
X139403770Y-110951372D01*
X139781141Y-110719144D02*
X139781141Y-110254687D01*
X139461827Y-109993430D02*
X139432799Y-109964401D01*
X139403770Y-109906344D01*
X139403770Y-109761201D01*
X139432799Y-109703144D01*
X139461827Y-109674115D01*
X139519884Y-109645087D01*
X139577941Y-109645087D01*
X139665027Y-109674115D01*
X140013370Y-110022458D01*
X140013370Y-109645087D01*
X139403770Y-109267715D02*
X139403770Y-109209658D01*
X139432799Y-109151601D01*
X139461827Y-109122572D01*
X139519884Y-109093544D01*
X139635999Y-109064515D01*
X139781141Y-109064515D01*
X139897256Y-109093544D01*
X139955313Y-109122572D01*
X139984341Y-109151601D01*
X140013370Y-109209658D01*
X140013370Y-109267715D01*
X139984341Y-109325772D01*
X139955313Y-109354801D01*
X139897256Y-109383830D01*
X139781141Y-109412858D01*
X139635999Y-109412858D01*
X139519884Y-109383830D01*
X139461827Y-109354801D01*
X139432799Y-109325772D01*
X139403770Y-109267715D01*
X140013370Y-108832287D02*
X139403770Y-108367830D01*
X139403770Y-108745201D02*
X139432799Y-108687144D01*
X139490856Y-108658115D01*
X139548913Y-108687144D01*
X139577941Y-108745201D01*
X139548913Y-108803258D01*
X139490856Y-108832287D01*
X139432799Y-108803258D01*
X139403770Y-108745201D01*
X139984341Y-108396858D02*
X139926284Y-108367830D01*
X139868227Y-108396858D01*
X139839199Y-108454915D01*
X139868227Y-108512972D01*
X139926284Y-108542001D01*
X139984341Y-108512972D01*
X140013370Y-108454915D01*
X139984341Y-108396858D01*
%TO.C,VR0*%
X161025770Y-118919715D02*
X161635370Y-118716515D01*
X161025770Y-118513315D01*
X161635370Y-117961772D02*
X161345084Y-118164972D01*
X161635370Y-118310115D02*
X161025770Y-118310115D01*
X161025770Y-118077887D01*
X161054799Y-118019830D01*
X161083827Y-117990801D01*
X161141884Y-117961772D01*
X161228970Y-117961772D01*
X161287027Y-117990801D01*
X161316056Y-118019830D01*
X161345084Y-118077887D01*
X161345084Y-118310115D01*
X161025770Y-117584401D02*
X161025770Y-117526344D01*
X161054799Y-117468287D01*
X161083827Y-117439258D01*
X161141884Y-117410230D01*
X161257999Y-117381201D01*
X161403141Y-117381201D01*
X161519256Y-117410230D01*
X161577313Y-117439258D01*
X161606341Y-117468287D01*
X161635370Y-117526344D01*
X161635370Y-117584401D01*
X161606341Y-117642458D01*
X161577313Y-117671487D01*
X161519256Y-117700515D01*
X161403141Y-117729544D01*
X161257999Y-117729544D01*
X161141884Y-117700515D01*
X161083827Y-117671487D01*
X161054799Y-117642458D01*
X161025770Y-117584401D01*
X150713370Y-127846001D02*
X150103770Y-127846001D01*
X150103770Y-127613772D01*
X150132799Y-127555715D01*
X150161827Y-127526687D01*
X150219884Y-127497658D01*
X150306970Y-127497658D01*
X150365027Y-127526687D01*
X150394056Y-127555715D01*
X150423084Y-127613772D01*
X150423084Y-127846001D01*
X150103770Y-127120287D02*
X150103770Y-127004172D01*
X150132799Y-126946115D01*
X150190856Y-126888058D01*
X150306970Y-126859030D01*
X150510170Y-126859030D01*
X150626284Y-126888058D01*
X150684341Y-126946115D01*
X150713370Y-127004172D01*
X150713370Y-127120287D01*
X150684341Y-127178344D01*
X150626284Y-127236401D01*
X150510170Y-127265430D01*
X150306970Y-127265430D01*
X150190856Y-127236401D01*
X150132799Y-127178344D01*
X150103770Y-127120287D01*
X150103770Y-126684858D02*
X150103770Y-126336515D01*
X150713370Y-126510687D02*
X150103770Y-126510687D01*
X150394056Y-126133315D02*
X150394056Y-125930115D01*
X150713370Y-125843030D02*
X150713370Y-126133315D01*
X150103770Y-126133315D01*
X150103770Y-125843030D01*
X150713370Y-125581772D02*
X150103770Y-125581772D01*
X150713370Y-125233430D01*
X150103770Y-125233430D01*
X150103770Y-125030230D02*
X150103770Y-124681887D01*
X150713370Y-124856058D02*
X150103770Y-124856058D01*
X150713370Y-124478687D02*
X150103770Y-124478687D01*
X150103770Y-124072287D02*
X150103770Y-123956172D01*
X150132799Y-123898115D01*
X150190856Y-123840058D01*
X150306970Y-123811030D01*
X150510170Y-123811030D01*
X150626284Y-123840058D01*
X150684341Y-123898115D01*
X150713370Y-123956172D01*
X150713370Y-124072287D01*
X150684341Y-124130344D01*
X150626284Y-124188401D01*
X150510170Y-124217430D01*
X150306970Y-124217430D01*
X150190856Y-124188401D01*
X150132799Y-124130344D01*
X150103770Y-124072287D01*
X150713370Y-123549772D02*
X150103770Y-123549772D01*
X150539199Y-123346572D01*
X150103770Y-123143372D01*
X150713370Y-123143372D01*
X150394056Y-122853087D02*
X150394056Y-122649887D01*
X150713370Y-122562801D02*
X150713370Y-122853087D01*
X150103770Y-122853087D01*
X150103770Y-122562801D01*
X150103770Y-122388630D02*
X150103770Y-122040287D01*
X150713370Y-122214458D02*
X150103770Y-122214458D01*
X150394056Y-121837087D02*
X150394056Y-121633887D01*
X150713370Y-121546801D02*
X150713370Y-121837087D01*
X150103770Y-121837087D01*
X150103770Y-121546801D01*
X150713370Y-120937201D02*
X150423084Y-121140401D01*
X150713370Y-121285544D02*
X150103770Y-121285544D01*
X150103770Y-121053315D01*
X150132799Y-120995258D01*
X150161827Y-120966230D01*
X150219884Y-120937201D01*
X150306970Y-120937201D01*
X150365027Y-120966230D01*
X150394056Y-120995258D01*
X150423084Y-121053315D01*
X150423084Y-121285544D01*
X150771427Y-120821087D02*
X150771427Y-120356630D01*
X150684341Y-120240515D02*
X150713370Y-120153430D01*
X150713370Y-120008287D01*
X150684341Y-119950230D01*
X150655313Y-119921201D01*
X150597256Y-119892172D01*
X150539199Y-119892172D01*
X150481141Y-119921201D01*
X150452113Y-119950230D01*
X150423084Y-120008287D01*
X150394056Y-120124401D01*
X150365027Y-120182458D01*
X150335999Y-120211487D01*
X150277941Y-120240515D01*
X150219884Y-120240515D01*
X150161827Y-120211487D01*
X150132799Y-120182458D01*
X150103770Y-120124401D01*
X150103770Y-119979258D01*
X150132799Y-119892172D01*
X150713370Y-119340630D02*
X150713370Y-119630915D01*
X150103770Y-119630915D01*
X150713370Y-119137430D02*
X150103770Y-119137430D01*
X150713370Y-118847144D02*
X150103770Y-118847144D01*
X150103770Y-118702001D01*
X150132799Y-118614915D01*
X150190856Y-118556858D01*
X150248913Y-118527830D01*
X150365027Y-118498801D01*
X150452113Y-118498801D01*
X150568227Y-118527830D01*
X150626284Y-118556858D01*
X150684341Y-118614915D01*
X150713370Y-118702001D01*
X150713370Y-118847144D01*
X150394056Y-118237544D02*
X150394056Y-118034344D01*
X150713370Y-117947258D02*
X150713370Y-118237544D01*
X150103770Y-118237544D01*
X150103770Y-117947258D01*
X150481141Y-117686001D02*
X150481141Y-117221544D01*
X150103770Y-116989315D02*
X150103770Y-116611944D01*
X150335999Y-116815144D01*
X150335999Y-116728058D01*
X150365027Y-116670001D01*
X150394056Y-116640972D01*
X150452113Y-116611944D01*
X150597256Y-116611944D01*
X150655313Y-116640972D01*
X150684341Y-116670001D01*
X150713370Y-116728058D01*
X150713370Y-116902230D01*
X150684341Y-116960287D01*
X150655313Y-116989315D01*
X150103770Y-116234572D02*
X150103770Y-116176515D01*
X150132799Y-116118458D01*
X150161827Y-116089430D01*
X150219884Y-116060401D01*
X150335999Y-116031372D01*
X150481141Y-116031372D01*
X150597256Y-116060401D01*
X150655313Y-116089430D01*
X150684341Y-116118458D01*
X150713370Y-116176515D01*
X150713370Y-116234572D01*
X150684341Y-116292630D01*
X150655313Y-116321658D01*
X150597256Y-116350687D01*
X150481141Y-116379715D01*
X150335999Y-116379715D01*
X150219884Y-116350687D01*
X150161827Y-116321658D01*
X150132799Y-116292630D01*
X150103770Y-116234572D01*
X150713370Y-115770115D02*
X150103770Y-115770115D01*
X150539199Y-115566915D01*
X150103770Y-115363715D01*
X150713370Y-115363715D01*
X150713370Y-115073430D02*
X150103770Y-115073430D01*
X150539199Y-114870230D01*
X150103770Y-114667030D01*
X150713370Y-114667030D01*
X150481141Y-114376744D02*
X150481141Y-113912287D01*
X150713370Y-113302687D02*
X150713370Y-113651030D01*
X150713370Y-113476858D02*
X150103770Y-113476858D01*
X150190856Y-113534915D01*
X150248913Y-113592972D01*
X150277941Y-113651030D01*
X150771427Y-113186572D02*
X150771427Y-112722115D01*
X150713370Y-112257658D02*
X150713370Y-112606001D01*
X150713370Y-112431830D02*
X150103770Y-112431830D01*
X150190856Y-112489887D01*
X150248913Y-112547944D01*
X150277941Y-112606001D01*
X150103770Y-111880287D02*
X150103770Y-111822230D01*
X150132799Y-111764172D01*
X150161827Y-111735144D01*
X150219884Y-111706115D01*
X150335999Y-111677087D01*
X150481141Y-111677087D01*
X150597256Y-111706115D01*
X150655313Y-111735144D01*
X150684341Y-111764172D01*
X150713370Y-111822230D01*
X150713370Y-111880287D01*
X150684341Y-111938344D01*
X150655313Y-111967372D01*
X150597256Y-111996401D01*
X150481141Y-112025430D01*
X150335999Y-112025430D01*
X150219884Y-111996401D01*
X150161827Y-111967372D01*
X150132799Y-111938344D01*
X150103770Y-111880287D01*
X150103770Y-111473887D02*
X150713370Y-111328744D01*
X150277941Y-111212630D01*
X150713370Y-111096515D01*
X150103770Y-110951372D01*
X150481141Y-110719144D02*
X150481141Y-110254687D01*
X150161827Y-109993430D02*
X150132799Y-109964401D01*
X150103770Y-109906344D01*
X150103770Y-109761201D01*
X150132799Y-109703144D01*
X150161827Y-109674115D01*
X150219884Y-109645087D01*
X150277941Y-109645087D01*
X150365027Y-109674115D01*
X150713370Y-110022458D01*
X150713370Y-109645087D01*
X150103770Y-109267715D02*
X150103770Y-109209658D01*
X150132799Y-109151601D01*
X150161827Y-109122572D01*
X150219884Y-109093544D01*
X150335999Y-109064515D01*
X150481141Y-109064515D01*
X150597256Y-109093544D01*
X150655313Y-109122572D01*
X150684341Y-109151601D01*
X150713370Y-109209658D01*
X150713370Y-109267715D01*
X150684341Y-109325772D01*
X150655313Y-109354801D01*
X150597256Y-109383830D01*
X150481141Y-109412858D01*
X150335999Y-109412858D01*
X150219884Y-109383830D01*
X150161827Y-109354801D01*
X150132799Y-109325772D01*
X150103770Y-109267715D01*
X150713370Y-108832287D02*
X150103770Y-108367830D01*
X150103770Y-108745201D02*
X150132799Y-108687144D01*
X150190856Y-108658115D01*
X150248913Y-108687144D01*
X150277941Y-108745201D01*
X150248913Y-108803258D01*
X150190856Y-108832287D01*
X150132799Y-108803258D01*
X150103770Y-108745201D01*
X150684341Y-108396858D02*
X150626284Y-108367830D01*
X150568227Y-108396858D01*
X150539199Y-108454915D01*
X150568227Y-108512972D01*
X150626284Y-108542001D01*
X150684341Y-108512972D01*
X150713370Y-108454915D01*
X150684341Y-108396858D01*
%TO.C,*%
D10*
%TO.C,K1*%
D16*
X76761904Y-95020380D02*
X76761904Y-94020380D01*
X77333333Y-95020380D02*
X76904761Y-94448952D01*
X77333333Y-94020380D02*
X76761904Y-94591809D01*
X78285714Y-95020380D02*
X77714285Y-95020380D01*
X78000000Y-95020380D02*
X78000000Y-94020380D01*
X77904761Y-94163238D01*
X77809523Y-94258476D01*
X77714285Y-94306095D01*
%TO.C,K2*%
X96511904Y-95020380D02*
X96511904Y-94020380D01*
X97083333Y-95020380D02*
X96654761Y-94448952D01*
X97083333Y-94020380D02*
X96511904Y-94591809D01*
X97464285Y-94115619D02*
X97511904Y-94068000D01*
X97607142Y-94020380D01*
X97845238Y-94020380D01*
X97940476Y-94068000D01*
X97988095Y-94115619D01*
X98035714Y-94210857D01*
X98035714Y-94306095D01*
X97988095Y-94448952D01*
X97416666Y-95020380D01*
X98035714Y-95020380D01*
%TO.C,K3*%
X116511904Y-95020380D02*
X116511904Y-94020380D01*
X117083333Y-95020380D02*
X116654761Y-94448952D01*
X117083333Y-94020380D02*
X116511904Y-94591809D01*
X117416666Y-94020380D02*
X118035714Y-94020380D01*
X117702380Y-94401333D01*
X117845238Y-94401333D01*
X117940476Y-94448952D01*
X117988095Y-94496571D01*
X118035714Y-94591809D01*
X118035714Y-94829904D01*
X117988095Y-94925142D01*
X117940476Y-94972761D01*
X117845238Y-95020380D01*
X117559523Y-95020380D01*
X117464285Y-94972761D01*
X117416666Y-94925142D01*
%TO.C,K4*%
X76761904Y-115020380D02*
X76761904Y-114020380D01*
X77333333Y-115020380D02*
X76904761Y-114448952D01*
X77333333Y-114020380D02*
X76761904Y-114591809D01*
X78190476Y-114353714D02*
X78190476Y-115020380D01*
X77952380Y-113972761D02*
X77714285Y-114687047D01*
X78333333Y-114687047D01*
%TO.C,K5*%
X96511904Y-115020380D02*
X96511904Y-114020380D01*
X97083333Y-115020380D02*
X96654761Y-114448952D01*
X97083333Y-114020380D02*
X96511904Y-114591809D01*
X97988095Y-114020380D02*
X97511904Y-114020380D01*
X97464285Y-114496571D01*
X97511904Y-114448952D01*
X97607142Y-114401333D01*
X97845238Y-114401333D01*
X97940476Y-114448952D01*
X97988095Y-114496571D01*
X98035714Y-114591809D01*
X98035714Y-114829904D01*
X97988095Y-114925142D01*
X97940476Y-114972761D01*
X97845238Y-115020380D01*
X97607142Y-115020380D01*
X97511904Y-114972761D01*
X97464285Y-114925142D01*
%TO.C,K6*%
X116511904Y-115020380D02*
X116511904Y-114020380D01*
X117083333Y-115020380D02*
X116654761Y-114448952D01*
X117083333Y-114020380D02*
X116511904Y-114591809D01*
X117940476Y-114020380D02*
X117750000Y-114020380D01*
X117654761Y-114068000D01*
X117607142Y-114115619D01*
X117511904Y-114258476D01*
X117464285Y-114448952D01*
X117464285Y-114829904D01*
X117511904Y-114925142D01*
X117559523Y-114972761D01*
X117654761Y-115020380D01*
X117845238Y-115020380D01*
X117940476Y-114972761D01*
X117988095Y-114925142D01*
X118035714Y-114829904D01*
X118035714Y-114591809D01*
X117988095Y-114496571D01*
X117940476Y-114448952D01*
X117845238Y-114401333D01*
X117654761Y-114401333D01*
X117559523Y-114448952D01*
X117511904Y-114496571D01*
X117464285Y-114591809D01*
%TO.C,K7*%
X76761904Y-135020380D02*
X76761904Y-134020380D01*
X77333333Y-135020380D02*
X76904761Y-134448952D01*
X77333333Y-134020380D02*
X76761904Y-134591809D01*
X77666666Y-134020380D02*
X78333333Y-134020380D01*
X77904761Y-135020380D01*
%TO.C,K8*%
X96761904Y-135020380D02*
X96761904Y-134020380D01*
X97333333Y-135020380D02*
X96904761Y-134448952D01*
X97333333Y-134020380D02*
X96761904Y-134591809D01*
X97904761Y-134448952D02*
X97809523Y-134401333D01*
X97761904Y-134353714D01*
X97714285Y-134258476D01*
X97714285Y-134210857D01*
X97761904Y-134115619D01*
X97809523Y-134068000D01*
X97904761Y-134020380D01*
X98095238Y-134020380D01*
X98190476Y-134068000D01*
X98238095Y-134115619D01*
X98285714Y-134210857D01*
X98285714Y-134258476D01*
X98238095Y-134353714D01*
X98190476Y-134401333D01*
X98095238Y-134448952D01*
X97904761Y-134448952D01*
X97809523Y-134496571D01*
X97761904Y-134544190D01*
X97714285Y-134639428D01*
X97714285Y-134829904D01*
X97761904Y-134925142D01*
X97809523Y-134972761D01*
X97904761Y-135020380D01*
X98095238Y-135020380D01*
X98190476Y-134972761D01*
X98238095Y-134925142D01*
X98285714Y-134829904D01*
X98285714Y-134639428D01*
X98238095Y-134544190D01*
X98190476Y-134496571D01*
X98095238Y-134448952D01*
%TO.C,K9*%
X116511904Y-135020380D02*
X116511904Y-134020380D01*
X117083333Y-135020380D02*
X116654761Y-134448952D01*
X117083333Y-134020380D02*
X116511904Y-134591809D01*
X117559523Y-135020380D02*
X117750000Y-135020380D01*
X117845238Y-134972761D01*
X117892857Y-134925142D01*
X117988095Y-134782285D01*
X118035714Y-134591809D01*
X118035714Y-134210857D01*
X117988095Y-134115619D01*
X117940476Y-134068000D01*
X117845238Y-134020380D01*
X117654761Y-134020380D01*
X117559523Y-134068000D01*
X117511904Y-134115619D01*
X117464285Y-134210857D01*
X117464285Y-134448952D01*
X117511904Y-134544190D01*
X117559523Y-134591809D01*
X117654761Y-134639428D01*
X117845238Y-134639428D01*
X117940476Y-134591809D01*
X117988095Y-134544190D01*
X118035714Y-134448952D01*
%TD*%
M02*
