M48
; DRILL file {KiCad (5.1.7)-1} date 05/05/21 18:42:58
; FORMAT={-:-/ absolute / inch / decimal}
; #@! TF.CreationDate,2021-05-05T18:42:58-04:00
; #@! TF.GenerationSoftware,Kicad,Pcbnew,(5.1.7)-1
; #@! TF.FileFunction,NonPlated,1,2,NPTH
FMAT,2
INCH
T1C0.0591
T2C0.0670
T3C0.0709
T4C0.0866
T5C0.1570
%
G90
G05
T1
X5.81Y-1.8417
X6.001Y-1.8417
T2
X2.8512Y-5.128
X3.2512Y-5.128
X3.6287Y-4.3406
X4.0287Y-4.3406
X4.4161Y-4.3406
X4.8161Y-4.3406
X4.4161Y-3.5531
X4.8161Y-3.5531
X4.4161Y-5.128
X4.8161Y-5.128
X3.6287Y-3.5531
X4.0287Y-3.5531
X3.6386Y-5.128
X4.0386Y-5.128
X2.8512Y-4.3406
X3.2512Y-4.3406
X2.8512Y-3.5531
X3.2512Y-3.5531
T3
X5.7982Y-1.7224
X6.0128Y-1.7224
T4
X2.4803Y-6.0138
X6.7224Y-1.7421
X6.7224Y-6.0236
X2.4803Y-1.7421
T5
X3.8386Y-5.128
X3.0512Y-4.3406
X3.0512Y-5.128
X3.8287Y-4.3406
X4.6161Y-4.3406
X4.6161Y-3.5531
X4.6161Y-5.128
X3.8287Y-3.5531
X3.0512Y-3.5531
T1
G00X4.3661Y-2.4449
M15
G01X4.3661Y-2.4961
M16
G05
G00X4.8071Y-2.4449
M15
G01X4.8071Y-2.4961
M16
G05
G00X2.8209Y-2.4547
M15
G01X2.8209Y-2.5059
M16
G05
G00X3.2618Y-2.4547
M15
G01X3.2618Y-2.5059
M16
G05
T0
M30
