%TF.GenerationSoftware,KiCad,Pcbnew,(5.1.7)-1*%
%TF.CreationDate,2021-05-06T00:37:00-04:00*%
%TF.ProjectId,pot_keeb_rpi,706f745f-6b65-4656-925f-7270692e6b69,rev?*%
%TF.SameCoordinates,Original*%
%TF.FileFunction,Legend,Bot*%
%TF.FilePolarity,Positive*%
%FSLAX46Y46*%
G04 Gerber Fmt 4.6, Leading zero omitted, Abs format (unit mm)*
G04 Created by KiCad (PCBNEW (5.1.7)-1) date 2021-05-06 00:37:00*
%MOMM*%
%LPD*%
G01*
G04 APERTURE LIST*
%ADD10C,0.200000*%
%ADD11C,0.150000*%
G04 APERTURE END LIST*
D10*
%TO.C,D1*%
X74700000Y-82450000D02*
X80500000Y-82450000D01*
X74700000Y-80050000D02*
X74700000Y-82450000D01*
X80500000Y-80050000D02*
X74700000Y-80050000D01*
X80425000Y-80050000D02*
X80425000Y-82450000D01*
X80300000Y-80050000D02*
X80300000Y-82450000D01*
X80525000Y-82450000D02*
X80525000Y-80050000D01*
X80125000Y-80050000D02*
X80125000Y-82450000D01*
X79950000Y-80050000D02*
X79950000Y-82450000D01*
X79775000Y-80050000D02*
X79775000Y-82450000D01*
%TO.C,D2*%
X100025000Y-80300000D02*
X100025000Y-82700000D01*
X100200000Y-80300000D02*
X100200000Y-82700000D01*
X100375000Y-80300000D02*
X100375000Y-82700000D01*
X100775000Y-82700000D02*
X100775000Y-80300000D01*
X100550000Y-80300000D02*
X100550000Y-82700000D01*
X100675000Y-80300000D02*
X100675000Y-82700000D01*
X100750000Y-80300000D02*
X94950000Y-80300000D01*
X94950000Y-80300000D02*
X94950000Y-82700000D01*
X94950000Y-82700000D02*
X100750000Y-82700000D01*
%TO.C,D3*%
X114700000Y-82700000D02*
X120500000Y-82700000D01*
X114700000Y-80300000D02*
X114700000Y-82700000D01*
X120500000Y-80300000D02*
X114700000Y-80300000D01*
X120425000Y-80300000D02*
X120425000Y-82700000D01*
X120300000Y-80300000D02*
X120300000Y-82700000D01*
X120525000Y-82700000D02*
X120525000Y-80300000D01*
X120125000Y-80300000D02*
X120125000Y-82700000D01*
X119950000Y-80300000D02*
X119950000Y-82700000D01*
X119775000Y-80300000D02*
X119775000Y-82700000D01*
%TO.C,D4*%
X82525000Y-100050000D02*
X82525000Y-102450000D01*
X82700000Y-100050000D02*
X82700000Y-102450000D01*
X82875000Y-100050000D02*
X82875000Y-102450000D01*
X83275000Y-102450000D02*
X83275000Y-100050000D01*
X83050000Y-100050000D02*
X83050000Y-102450000D01*
X83175000Y-100050000D02*
X83175000Y-102450000D01*
X83250000Y-100050000D02*
X77450000Y-100050000D01*
X77450000Y-100050000D02*
X77450000Y-102450000D01*
X77450000Y-102450000D02*
X83250000Y-102450000D01*
%TO.C,D5*%
X96950000Y-102450000D02*
X102750000Y-102450000D01*
X96950000Y-100050000D02*
X96950000Y-102450000D01*
X102750000Y-100050000D02*
X96950000Y-100050000D01*
X102675000Y-100050000D02*
X102675000Y-102450000D01*
X102550000Y-100050000D02*
X102550000Y-102450000D01*
X102775000Y-102450000D02*
X102775000Y-100050000D01*
X102375000Y-100050000D02*
X102375000Y-102450000D01*
X102200000Y-100050000D02*
X102200000Y-102450000D01*
X102025000Y-100050000D02*
X102025000Y-102450000D01*
%TO.C,D6*%
X122525000Y-100050000D02*
X122525000Y-102450000D01*
X122700000Y-100050000D02*
X122700000Y-102450000D01*
X122875000Y-100050000D02*
X122875000Y-102450000D01*
X123275000Y-102450000D02*
X123275000Y-100050000D01*
X123050000Y-100050000D02*
X123050000Y-102450000D01*
X123175000Y-100050000D02*
X123175000Y-102450000D01*
X123250000Y-100050000D02*
X117450000Y-100050000D01*
X117450000Y-100050000D02*
X117450000Y-102450000D01*
X117450000Y-102450000D02*
X123250000Y-102450000D01*
%TO.C,D7*%
X76950000Y-122450000D02*
X82750000Y-122450000D01*
X76950000Y-120050000D02*
X76950000Y-122450000D01*
X82750000Y-120050000D02*
X76950000Y-120050000D01*
X82675000Y-120050000D02*
X82675000Y-122450000D01*
X82550000Y-120050000D02*
X82550000Y-122450000D01*
X82775000Y-122450000D02*
X82775000Y-120050000D01*
X82375000Y-120050000D02*
X82375000Y-122450000D01*
X82200000Y-120050000D02*
X82200000Y-122450000D01*
X82025000Y-120050000D02*
X82025000Y-122450000D01*
%TO.C,D8*%
X102525000Y-120050000D02*
X102525000Y-122450000D01*
X102700000Y-120050000D02*
X102700000Y-122450000D01*
X102875000Y-120050000D02*
X102875000Y-122450000D01*
X103275000Y-122450000D02*
X103275000Y-120050000D01*
X103050000Y-120050000D02*
X103050000Y-122450000D01*
X103175000Y-120050000D02*
X103175000Y-122450000D01*
X103250000Y-120050000D02*
X97450000Y-120050000D01*
X97450000Y-120050000D02*
X97450000Y-122450000D01*
X97450000Y-122450000D02*
X103250000Y-122450000D01*
%TO.C,D9*%
X116950000Y-122450000D02*
X122750000Y-122450000D01*
X116950000Y-120050000D02*
X116950000Y-122450000D01*
X122750000Y-120050000D02*
X116950000Y-120050000D01*
X122675000Y-120050000D02*
X122675000Y-122450000D01*
X122550000Y-120050000D02*
X122550000Y-122450000D01*
X122775000Y-122450000D02*
X122775000Y-120050000D01*
X122375000Y-120050000D02*
X122375000Y-122450000D01*
X122200000Y-120050000D02*
X122200000Y-122450000D01*
X122025000Y-120050000D02*
X122025000Y-122450000D01*
%TO.C,D10*%
X75225000Y-75700000D02*
X75225000Y-73300000D01*
X75050000Y-75700000D02*
X75050000Y-73300000D01*
X74875000Y-75700000D02*
X74875000Y-73300000D01*
X74475000Y-73300000D02*
X74475000Y-75700000D01*
X74700000Y-75700000D02*
X74700000Y-73300000D01*
X74575000Y-75700000D02*
X74575000Y-73300000D01*
X74500000Y-75700000D02*
X80300000Y-75700000D01*
X80300000Y-75700000D02*
X80300000Y-73300000D01*
X80300000Y-73300000D02*
X74500000Y-73300000D01*
%TO.C,D11*%
X114475000Y-74950000D02*
X114475000Y-72550000D01*
X114300000Y-74950000D02*
X114300000Y-72550000D01*
X114125000Y-74950000D02*
X114125000Y-72550000D01*
X113725000Y-72550000D02*
X113725000Y-74950000D01*
X113950000Y-74950000D02*
X113950000Y-72550000D01*
X113825000Y-74950000D02*
X113825000Y-72550000D01*
X113750000Y-74950000D02*
X119550000Y-74950000D01*
X119550000Y-74950000D02*
X119550000Y-72550000D01*
X119550000Y-72550000D02*
X113750000Y-72550000D01*
D11*
%TO.C,OL1*%
X175520000Y-58770000D02*
X165360000Y-58770000D01*
X175520000Y-56230000D02*
X165360000Y-56230000D01*
X165360000Y-56230000D02*
X165360000Y-58770000D01*
X175520000Y-58770000D02*
X175520000Y-56230000D01*
%TO.C,D1*%
X78090476Y-83536904D02*
X78090476Y-82736904D01*
X77900000Y-82736904D01*
X77785714Y-82775000D01*
X77709523Y-82851190D01*
X77671428Y-82927380D01*
X77633333Y-83079761D01*
X77633333Y-83194047D01*
X77671428Y-83346428D01*
X77709523Y-83422619D01*
X77785714Y-83498809D01*
X77900000Y-83536904D01*
X78090476Y-83536904D01*
X76871428Y-83536904D02*
X77328571Y-83536904D01*
X77100000Y-83536904D02*
X77100000Y-82736904D01*
X77176190Y-82851190D01*
X77252380Y-82927380D01*
X77328571Y-82965476D01*
%TO.C,D2*%
X98340476Y-83786904D02*
X98340476Y-82986904D01*
X98150000Y-82986904D01*
X98035714Y-83025000D01*
X97959523Y-83101190D01*
X97921428Y-83177380D01*
X97883333Y-83329761D01*
X97883333Y-83444047D01*
X97921428Y-83596428D01*
X97959523Y-83672619D01*
X98035714Y-83748809D01*
X98150000Y-83786904D01*
X98340476Y-83786904D01*
X97578571Y-83063095D02*
X97540476Y-83025000D01*
X97464285Y-82986904D01*
X97273809Y-82986904D01*
X97197619Y-83025000D01*
X97159523Y-83063095D01*
X97121428Y-83139285D01*
X97121428Y-83215476D01*
X97159523Y-83329761D01*
X97616666Y-83786904D01*
X97121428Y-83786904D01*
%TO.C,D3*%
X118090476Y-83786904D02*
X118090476Y-82986904D01*
X117900000Y-82986904D01*
X117785714Y-83025000D01*
X117709523Y-83101190D01*
X117671428Y-83177380D01*
X117633333Y-83329761D01*
X117633333Y-83444047D01*
X117671428Y-83596428D01*
X117709523Y-83672619D01*
X117785714Y-83748809D01*
X117900000Y-83786904D01*
X118090476Y-83786904D01*
X117366666Y-82986904D02*
X116871428Y-82986904D01*
X117138095Y-83291666D01*
X117023809Y-83291666D01*
X116947619Y-83329761D01*
X116909523Y-83367857D01*
X116871428Y-83444047D01*
X116871428Y-83634523D01*
X116909523Y-83710714D01*
X116947619Y-83748809D01*
X117023809Y-83786904D01*
X117252380Y-83786904D01*
X117328571Y-83748809D01*
X117366666Y-83710714D01*
%TO.C,D4*%
X80840476Y-103536904D02*
X80840476Y-102736904D01*
X80650000Y-102736904D01*
X80535714Y-102775000D01*
X80459523Y-102851190D01*
X80421428Y-102927380D01*
X80383333Y-103079761D01*
X80383333Y-103194047D01*
X80421428Y-103346428D01*
X80459523Y-103422619D01*
X80535714Y-103498809D01*
X80650000Y-103536904D01*
X80840476Y-103536904D01*
X79697619Y-103003571D02*
X79697619Y-103536904D01*
X79888095Y-102698809D02*
X80078571Y-103270238D01*
X79583333Y-103270238D01*
%TO.C,D5*%
X100340476Y-103536904D02*
X100340476Y-102736904D01*
X100150000Y-102736904D01*
X100035714Y-102775000D01*
X99959523Y-102851190D01*
X99921428Y-102927380D01*
X99883333Y-103079761D01*
X99883333Y-103194047D01*
X99921428Y-103346428D01*
X99959523Y-103422619D01*
X100035714Y-103498809D01*
X100150000Y-103536904D01*
X100340476Y-103536904D01*
X99159523Y-102736904D02*
X99540476Y-102736904D01*
X99578571Y-103117857D01*
X99540476Y-103079761D01*
X99464285Y-103041666D01*
X99273809Y-103041666D01*
X99197619Y-103079761D01*
X99159523Y-103117857D01*
X99121428Y-103194047D01*
X99121428Y-103384523D01*
X99159523Y-103460714D01*
X99197619Y-103498809D01*
X99273809Y-103536904D01*
X99464285Y-103536904D01*
X99540476Y-103498809D01*
X99578571Y-103460714D01*
%TO.C,D6*%
X120840476Y-103536904D02*
X120840476Y-102736904D01*
X120650000Y-102736904D01*
X120535714Y-102775000D01*
X120459523Y-102851190D01*
X120421428Y-102927380D01*
X120383333Y-103079761D01*
X120383333Y-103194047D01*
X120421428Y-103346428D01*
X120459523Y-103422619D01*
X120535714Y-103498809D01*
X120650000Y-103536904D01*
X120840476Y-103536904D01*
X119697619Y-102736904D02*
X119850000Y-102736904D01*
X119926190Y-102775000D01*
X119964285Y-102813095D01*
X120040476Y-102927380D01*
X120078571Y-103079761D01*
X120078571Y-103384523D01*
X120040476Y-103460714D01*
X120002380Y-103498809D01*
X119926190Y-103536904D01*
X119773809Y-103536904D01*
X119697619Y-103498809D01*
X119659523Y-103460714D01*
X119621428Y-103384523D01*
X119621428Y-103194047D01*
X119659523Y-103117857D01*
X119697619Y-103079761D01*
X119773809Y-103041666D01*
X119926190Y-103041666D01*
X120002380Y-103079761D01*
X120040476Y-103117857D01*
X120078571Y-103194047D01*
%TO.C,D7*%
X80340476Y-123536904D02*
X80340476Y-122736904D01*
X80150000Y-122736904D01*
X80035714Y-122775000D01*
X79959523Y-122851190D01*
X79921428Y-122927380D01*
X79883333Y-123079761D01*
X79883333Y-123194047D01*
X79921428Y-123346428D01*
X79959523Y-123422619D01*
X80035714Y-123498809D01*
X80150000Y-123536904D01*
X80340476Y-123536904D01*
X79616666Y-122736904D02*
X79083333Y-122736904D01*
X79426190Y-123536904D01*
%TO.C,D8*%
X100840476Y-123536904D02*
X100840476Y-122736904D01*
X100650000Y-122736904D01*
X100535714Y-122775000D01*
X100459523Y-122851190D01*
X100421428Y-122927380D01*
X100383333Y-123079761D01*
X100383333Y-123194047D01*
X100421428Y-123346428D01*
X100459523Y-123422619D01*
X100535714Y-123498809D01*
X100650000Y-123536904D01*
X100840476Y-123536904D01*
X99926190Y-123079761D02*
X100002380Y-123041666D01*
X100040476Y-123003571D01*
X100078571Y-122927380D01*
X100078571Y-122889285D01*
X100040476Y-122813095D01*
X100002380Y-122775000D01*
X99926190Y-122736904D01*
X99773809Y-122736904D01*
X99697619Y-122775000D01*
X99659523Y-122813095D01*
X99621428Y-122889285D01*
X99621428Y-122927380D01*
X99659523Y-123003571D01*
X99697619Y-123041666D01*
X99773809Y-123079761D01*
X99926190Y-123079761D01*
X100002380Y-123117857D01*
X100040476Y-123155952D01*
X100078571Y-123232142D01*
X100078571Y-123384523D01*
X100040476Y-123460714D01*
X100002380Y-123498809D01*
X99926190Y-123536904D01*
X99773809Y-123536904D01*
X99697619Y-123498809D01*
X99659523Y-123460714D01*
X99621428Y-123384523D01*
X99621428Y-123232142D01*
X99659523Y-123155952D01*
X99697619Y-123117857D01*
X99773809Y-123079761D01*
%TO.C,D9*%
X120340476Y-123536904D02*
X120340476Y-122736904D01*
X120150000Y-122736904D01*
X120035714Y-122775000D01*
X119959523Y-122851190D01*
X119921428Y-122927380D01*
X119883333Y-123079761D01*
X119883333Y-123194047D01*
X119921428Y-123346428D01*
X119959523Y-123422619D01*
X120035714Y-123498809D01*
X120150000Y-123536904D01*
X120340476Y-123536904D01*
X119502380Y-123536904D02*
X119350000Y-123536904D01*
X119273809Y-123498809D01*
X119235714Y-123460714D01*
X119159523Y-123346428D01*
X119121428Y-123194047D01*
X119121428Y-122889285D01*
X119159523Y-122813095D01*
X119197619Y-122775000D01*
X119273809Y-122736904D01*
X119426190Y-122736904D01*
X119502380Y-122775000D01*
X119540476Y-122813095D01*
X119578571Y-122889285D01*
X119578571Y-123079761D01*
X119540476Y-123155952D01*
X119502380Y-123194047D01*
X119426190Y-123232142D01*
X119273809Y-123232142D01*
X119197619Y-123194047D01*
X119159523Y-123155952D01*
X119121428Y-123079761D01*
%TO.C,D10*%
X78471428Y-72936904D02*
X78471428Y-72136904D01*
X78280952Y-72136904D01*
X78166666Y-72175000D01*
X78090476Y-72251190D01*
X78052380Y-72327380D01*
X78014285Y-72479761D01*
X78014285Y-72594047D01*
X78052380Y-72746428D01*
X78090476Y-72822619D01*
X78166666Y-72898809D01*
X78280952Y-72936904D01*
X78471428Y-72936904D01*
X77252380Y-72936904D02*
X77709523Y-72936904D01*
X77480952Y-72936904D02*
X77480952Y-72136904D01*
X77557142Y-72251190D01*
X77633333Y-72327380D01*
X77709523Y-72365476D01*
X76757142Y-72136904D02*
X76680952Y-72136904D01*
X76604761Y-72175000D01*
X76566666Y-72213095D01*
X76528571Y-72289285D01*
X76490476Y-72441666D01*
X76490476Y-72632142D01*
X76528571Y-72784523D01*
X76566666Y-72860714D01*
X76604761Y-72898809D01*
X76680952Y-72936904D01*
X76757142Y-72936904D01*
X76833333Y-72898809D01*
X76871428Y-72860714D01*
X76909523Y-72784523D01*
X76947619Y-72632142D01*
X76947619Y-72441666D01*
X76909523Y-72289285D01*
X76871428Y-72213095D01*
X76833333Y-72175000D01*
X76757142Y-72136904D01*
%TO.C,D11*%
X117721428Y-72186904D02*
X117721428Y-71386904D01*
X117530952Y-71386904D01*
X117416666Y-71425000D01*
X117340476Y-71501190D01*
X117302380Y-71577380D01*
X117264285Y-71729761D01*
X117264285Y-71844047D01*
X117302380Y-71996428D01*
X117340476Y-72072619D01*
X117416666Y-72148809D01*
X117530952Y-72186904D01*
X117721428Y-72186904D01*
X116502380Y-72186904D02*
X116959523Y-72186904D01*
X116730952Y-72186904D02*
X116730952Y-71386904D01*
X116807142Y-71501190D01*
X116883333Y-71577380D01*
X116959523Y-71615476D01*
X115740476Y-72186904D02*
X116197619Y-72186904D01*
X115969047Y-72186904D02*
X115969047Y-71386904D01*
X116045238Y-71501190D01*
X116121428Y-71577380D01*
X116197619Y-71615476D01*
%TO.C,OL1*%
X171902380Y-54852380D02*
X171711904Y-54852380D01*
X171616666Y-54900000D01*
X171521428Y-54995238D01*
X171473809Y-55185714D01*
X171473809Y-55519047D01*
X171521428Y-55709523D01*
X171616666Y-55804761D01*
X171711904Y-55852380D01*
X171902380Y-55852380D01*
X171997619Y-55804761D01*
X172092857Y-55709523D01*
X172140476Y-55519047D01*
X172140476Y-55185714D01*
X172092857Y-54995238D01*
X171997619Y-54900000D01*
X171902380Y-54852380D01*
X170569047Y-55852380D02*
X171045238Y-55852380D01*
X171045238Y-54852380D01*
X170235714Y-55328571D02*
X169902380Y-55328571D01*
X169759523Y-55852380D02*
X170235714Y-55852380D01*
X170235714Y-54852380D01*
X169759523Y-54852380D01*
X169330952Y-55852380D02*
X169330952Y-54852380D01*
X169092857Y-54852380D01*
X168950000Y-54900000D01*
X168854761Y-54995238D01*
X168807142Y-55090476D01*
X168759523Y-55280952D01*
X168759523Y-55423809D01*
X168807142Y-55614285D01*
X168854761Y-55709523D01*
X168950000Y-55804761D01*
X169092857Y-55852380D01*
X169330952Y-55852380D01*
%TD*%
M02*
